<svg id="svg" version="1.1" xmlns="http://www.w3.org/2000/svg" xmlns:xlink="http://www.w3.org/1999/xlink" width="400" height="400" viewBox="0, 0, 400,400"><g id="svgg"><path id="path0" d="M0.000 200.000 L 0.000 400.000 200.000 400.000 L 400.000 400.000 400.000 200.000 L 400.000 0.000 200.000 0.000 L 0.000 0.000 0.000 200.000 M358.000 198.800 L 358.000 236.000 357.100 235.997 C 356.605 235.995,340.765 236.040,321.900 236.097 L 287.600 236.200 287.600 198.900 L 287.600 161.600 322.800 161.600 L 358.000 161.600 358.000 198.800 M91.357 162.633 C 91.850 163.916,91.628 189.412,91.120 189.920 C 90.445 190.595,76.755 190.595,76.080 189.920 C 75.741 189.581,75.600 187.258,75.600 182.020 L 75.600 174.600 73.589 174.739 C 70.614 174.945,70.531 174.787,70.446 168.761 C 70.339 161.194,69.082 162.000,80.984 162.000 C 89.853 162.000,91.145 162.079,91.357 162.633 M124.219 162.932 C 124.949 165.841,124.198 199.805,123.363 201.600 C 120.814 207.083,118.267 208.176,108.000 208.190 L 100.200 208.200 100.090 202.100 L 99.979 196.000 103.658 196.000 C 109.129 196.000,108.800 196.720,108.800 184.738 L 108.800 174.800 105.480 174.800 C 103.431 174.800,101.976 174.616,101.680 174.320 C 101.175 173.815,100.973 163.858,101.443 162.633 C 101.656 162.077,103.037 162.000,112.835 162.000 L 123.985 162.000 124.219 162.932 M152.600 185.200 L 152.600 208.200 145.000 208.200 L 137.400 208.200 137.296 191.500 L 137.191 174.800 135.428 174.800 C 132.284 174.800,132.400 175.054,132.400 168.150 L 132.400 161.986 142.500 162.093 L 152.600 162.200 152.600 185.200 M206.200 185.200 L 206.200 208.200 198.600 208.200 L 191.000 208.200 190.896 191.500 L 190.791 174.800 186.229 174.800 L 181.666 174.800 181.524 187.900 C 181.369 202.114,181.333 202.363,179.010 205.118 C 176.742 207.807,175.366 208.200,168.200 208.200 C 159.664 208.200,160.400 208.803,160.400 201.813 L 160.400 196.000 162.567 196.000 C 166.333 196.000,166.000 197.673,166.000 178.754 L 166.000 161.993 186.100 162.096 L 206.200 162.200 206.200 185.200 M236.489 175.100 C 236.550 182.305,236.543 188.695,236.473 189.300 L 236.347 190.400 229.053 190.400 C 219.999 190.400,220.800 191.203,220.800 182.120 L 220.800 174.800 218.400 174.800 L 216.000 174.800 216.000 168.400 L 216.000 162.000 226.189 162.000 L 236.379 162.000 236.489 175.100 M274.711 168.170 C 274.839 175.018,274.957 174.785,271.349 174.794 C 268.381 174.801,268.246 174.939,267.165 179.043 C 265.797 184.238,265.765 187.935,267.000 198.095 C 268.402 209.617,269.194 208.441,260.125 208.309 L 252.632 208.200 252.314 206.800 C 249.717 195.389,249.956 184.828,252.961 178.250 C 253.753 176.518,254.400 175.039,254.400 174.965 C 254.400 174.891,252.735 174.778,250.700 174.715 L 247.000 174.600 246.889 168.818 C 246.827 165.639,246.867 162.801,246.978 162.513 C 247.139 162.093,249.885 162.010,260.889 162.095 L 274.600 162.200 274.711 168.170 M289.471 162.729 C 288.849 162.849,288.800 165.481,288.800 198.825 L 288.800 234.791 322.300 234.895 C 340.725 234.953,355.935 234.944,356.100 234.876 C 356.663 234.644,356.464 162.800,355.900 162.798 C 331.643 162.678,289.959 162.635,289.471 162.729 M346.000 184.600 L 346.000 195.200 336.000 195.200 L 326.000 195.200 326.000 184.600 L 326.000 174.000 336.000 174.000 L 346.000 174.000 346.000 184.600 M318.800 184.600 L 318.800 194.800 309.800 194.860 C 304.850 194.893,300.575 194.938,300.300 194.960 C 299.917 194.991,299.753 192.597,299.600 184.700 L 299.400 174.399 309.100 174.400 L 318.800 174.400 318.800 184.600 M319.107 213.100 L 319.213 223.600 309.207 223.600 L 299.200 223.600 299.200 212.993 L 299.200 202.386 309.100 202.493 L 319.000 202.600 319.107 213.100 M346.000 213.000 L 346.000 223.200 336.000 223.200 L 326.000 223.200 326.000 213.267 C 326.000 207.803,326.120 203.213,326.267 203.067 C 326.413 202.920,330.913 202.800,336.267 202.800 L 346.000 202.800 346.000 213.000 M136.953 216.155 C 140.204 217.513,141.867 223.273,140.813 229.522 C 139.222 238.954,129.389 239.682,127.034 230.542 C 124.569 220.980,129.922 213.217,136.953 216.155 M206.164 216.159 C 207.912 216.890,208.233 217.479,207.391 218.410 C 206.748 219.120,206.622 219.129,205.485 218.541 C 202.338 216.913,198.032 219.089,197.366 222.643 C 196.082 229.484,198.414 234.400,202.942 234.400 C 205.677 234.400,205.963 233.963,206.090 229.600 C 206.194 226.003,206.248 225.793,207.100 225.672 C 207.991 225.546,208.000 225.594,208.000 230.392 L 208.000 235.239 206.300 236.011 C 198.387 239.602,192.679 231.682,195.682 221.277 C 197.025 216.623,201.751 214.315,206.164 216.159 M236.932 216.146 C 241.194 217.927,242.838 227.725,239.846 233.512 C 238.201 236.691,232.964 237.871,230.070 235.714 C 225.064 231.983,226.295 216.919,231.691 215.883 C 233.601 215.517,235.675 215.621,236.932 216.146 M87.200 217.207 C 87.200 217.921,86.490 219.595,85.460 221.307 C 84.503 222.898,83.026 225.460,82.178 227.000 C 81.331 228.540,80.134 230.600,79.518 231.578 C 77.970 234.040,77.921 233.999,82.500 234.006 C 86.888 234.013,87.762 234.263,87.534 235.448 C 87.400 236.144,86.944 236.200,81.395 236.200 C 74.219 236.200,74.110 236.095,76.714 231.675 C 82.026 222.660,84.400 218.507,84.400 218.229 C 84.400 218.103,82.510 218.000,80.200 218.000 L 76.000 218.000 76.000 217.000 L 76.000 216.000 81.600 216.000 L 87.200 216.000 87.200 217.207 M101.800 217.000 C 101.800 217.730,101.467 217.818,98.000 218.000 L 94.200 218.200 94.084 221.500 L 93.968 224.800 97.357 224.800 C 100.390 224.800,100.773 224.884,100.999 225.596 C 101.429 226.952,100.868 227.200,97.376 227.200 L 94.000 227.200 94.000 230.600 L 94.000 234.000 97.786 234.000 C 101.175 234.000,101.617 234.085,102.004 234.808 C 102.754 236.209,102.128 236.400,96.776 236.400 L 91.600 236.400 91.600 226.188 L 91.600 215.976 96.700 216.088 C 101.496 216.193,101.800 216.248,101.800 217.000 M108.800 226.227 L 108.800 236.453 107.700 236.327 L 106.600 236.200 106.493 226.100 L 106.386 216.000 107.593 216.000 L 108.800 216.000 108.800 226.227 M125.000 217.000 C 125.000 217.702,124.694 217.815,122.500 217.919 L 120.000 218.038 120.000 227.246 L 120.000 236.453 118.940 236.327 L 117.881 236.200 117.926 227.800 C 117.982 217.398,118.151 218.000,115.173 218.000 C 112.902 218.000,112.800 217.957,112.800 216.990 L 112.800 215.979 118.900 216.090 C 124.697 216.195,125.000 216.240,125.000 217.000 M146.800 223.213 C 146.800 230.975,147.101 232.525,148.847 233.748 C 150.415 234.846,153.060 234.601,154.431 233.231 L 155.600 232.062 155.600 224.031 L 155.600 216.000 156.829 216.000 L 158.058 216.000 157.929 224.332 L 157.800 232.665 156.647 234.175 C 153.741 237.982,147.872 237.677,145.602 233.600 C 144.652 231.893,144.593 231.420,144.468 224.472 C 144.320 216.283,144.364 216.000,145.787 216.000 L 146.800 216.000 146.800 223.213 M169.425 224.100 L 173.400 232.200 173.600 224.200 L 173.800 216.200 174.900 216.073 L 176.000 215.947 176.000 226.173 L 176.000 236.400 174.478 236.400 L 172.956 236.400 168.778 227.900 L 164.600 219.400 164.492 227.900 L 164.384 236.400 163.392 236.400 L 162.400 236.400 162.400 226.200 L 162.400 216.000 163.925 216.000 L 165.449 216.000 169.425 224.100 M183.200 226.228 L 183.200 236.456 182.300 236.328 L 181.400 236.200 181.293 226.608 C 181.176 216.172,181.193 216.000,182.387 216.000 C 183.183 216.000,183.200 216.214,183.200 226.228 M220.378 216.507 C 223.681 218.178,223.851 225.060,220.633 226.782 C 219.624 227.323,219.615 227.363,220.276 228.368 C 221.624 230.415,224.400 235.525,224.400 235.958 C 224.400 237.572,221.971 236.299,220.856 234.100 C 217.975 228.419,218.072 228.534,215.870 228.184 L 214.400 227.951 214.400 232.202 L 214.400 236.453 213.300 236.327 L 212.200 236.200 212.071 226.664 C 212.000 221.420,212.039 216.875,212.158 216.564 C 212.440 215.830,218.951 215.785,220.378 216.507 M247.213 223.900 C 247.229 233.171,247.736 234.400,251.548 234.400 C 255.475 234.400,256.000 233.100,256.000 223.386 L 256.000 215.947 257.100 216.073 L 258.200 216.200 258.200 224.230 L 258.200 232.260 257.097 233.926 C 254.308 238.138,247.978 237.721,245.716 233.176 C 244.899 231.533,244.832 230.821,244.816 223.700 L 244.800 216.000 246.000 216.000 L 247.200 216.000 247.213 223.900 M272.290 217.355 C 276.619 221.322,273.423 228.395,267.300 228.399 L 264.800 228.400 264.800 232.427 L 264.800 236.453 263.700 236.327 L 262.600 236.200 262.493 226.100 L 262.386 216.000 266.599 216.000 L 270.812 216.000 272.290 217.355 M131.341 218.586 C 128.227 220.767,128.171 230.789,131.257 233.387 C 135.089 236.611,138.774 233.160,138.791 226.333 C 138.808 219.658,135.187 215.893,131.341 218.586 M214.400 221.797 L 214.400 225.696 216.859 225.518 C 222.654 225.099,222.281 218.655,216.430 218.093 L 214.400 217.898 214.400 221.797 M231.446 218.835 C 227.039 222.301,228.837 234.416,233.754 234.395 C 237.549 234.378,239.004 232.103,238.993 226.200 C 238.980 219.286,235.362 215.755,231.446 218.835 M264.800 221.991 L 264.800 226.093 267.405 225.927 C 273.451 225.542,273.354 218.665,267.295 218.115 L 264.800 217.889 264.800 221.991 " stroke="none" fill="#fbfbfb" fill-rule="evenodd"></path><path id="path1" d="M71.200 168.381 L 71.200 173.962 73.700 174.081 L 76.200 174.200 76.309 181.900 L 76.417 189.600 83.609 189.600 L 90.800 189.600 90.800 176.200 L 90.800 162.800 81.000 162.800 L 71.200 162.800 71.200 168.381 M102.000 168.385 L 102.000 173.970 105.700 174.085 L 109.400 174.200 109.517 183.600 C 109.682 196.921,109.738 196.800,103.401 196.800 L 100.377 196.800 100.488 202.100 L 100.600 207.400 108.200 207.400 C 123.295 207.400,123.600 206.868,123.600 180.513 L 123.600 162.800 112.800 162.800 L 102.000 162.800 102.000 168.385 M132.889 168.300 L 133.000 173.800 135.300 173.920 L 137.600 174.040 137.600 190.829 L 137.600 207.618 144.900 207.509 L 152.200 207.400 152.303 185.100 L 152.407 162.800 142.592 162.800 L 132.777 162.800 132.889 168.300 M166.400 179.376 C 166.400 191.501,166.276 196.030,165.937 196.239 C 165.682 196.396,164.467 196.543,163.237 196.565 L 161.000 196.604 160.888 201.708 L 160.776 206.811 161.888 207.264 C 163.659 207.986,172.205 207.862,174.851 207.075 C 180.338 205.444,180.883 203.703,181.097 187.100 L 181.266 174.000 186.229 174.000 L 191.191 174.000 191.296 190.700 L 191.400 207.400 198.500 207.509 L 205.600 207.618 205.600 185.209 L 205.600 162.800 186.000 162.800 L 166.400 162.800 166.400 179.376 M216.089 168.300 L 216.200 173.800 218.800 174.000 L 221.400 174.200 221.509 181.900 L 221.617 189.600 228.809 189.600 L 236.000 189.600 236.000 176.200 L 236.000 162.800 225.989 162.800 L 215.977 162.800 216.089 168.300 M247.200 168.395 L 247.200 174.000 250.976 174.000 C 255.635 174.000,255.560 173.857,253.415 178.649 C 251.397 183.159,250.535 187.968,250.955 192.375 C 251.582 198.945,252.483 205.879,252.817 206.700 C 253.177 207.587,253.289 207.600,260.436 207.600 L 267.689 207.600 267.454 206.300 C 265.758 196.925,265.209 185.457,266.222 180.554 C 267.489 174.419,267.764 174.103,272.000 173.904 L 274.200 173.800 274.200 168.400 L 274.200 163.000 260.700 162.895 L 247.200 162.789 247.200 168.395 M131.896 216.562 C 125.072 219.040,125.480 234.735,132.401 236.000 C 137.680 236.965,140.577 233.336,140.543 225.800 C 140.510 218.490,136.979 214.717,131.896 216.562 M202.200 216.188 C 201.980 216.266,201.319 216.436,200.731 216.565 C 194.286 217.981,193.267 232.332,199.386 235.496 C 200.915 236.287,204.774 236.241,206.375 235.413 L 207.600 234.779 207.600 230.590 C 207.600 227.132,207.495 226.400,207.000 226.400 C 206.507 226.400,206.400 227.109,206.400 230.385 L 206.400 234.369 204.736 234.817 C 199.638 236.190,196.686 232.929,196.716 225.960 C 196.732 222.313,197.772 219.643,199.730 218.221 C 201.040 217.270,204.724 217.107,205.746 217.955 C 206.369 218.472,207.200 218.264,207.200 217.590 C 207.200 216.841,203.378 215.768,202.200 216.188 M232.600 216.373 C 228.870 217.272,227.406 220.052,227.426 226.200 C 227.449 233.334,229.236 235.997,234.000 235.997 C 238.835 235.997,240.600 233.323,240.600 226.000 C 240.600 218.573,237.742 215.134,232.600 216.373 M76.800 217.000 C 76.800 217.495,77.533 217.600,81.000 217.600 C 85.868 217.600,85.773 217.457,83.468 221.307 C 74.283 236.645,74.374 236.000,81.400 236.000 C 85.933 236.000,86.800 235.904,86.800 235.400 C 86.800 234.901,86.022 234.800,82.200 234.800 C 76.575 234.800,76.571 235.684,82.238 225.725 C 84.854 221.128,86.777 217.318,86.650 216.987 C 86.313 216.108,76.800 216.120,76.800 217.000 M92.400 226.200 L 92.400 236.000 97.033 236.000 C 103.125 236.000,103.375 235.103,97.368 234.800 L 93.400 234.600 93.400 230.800 L 93.400 227.000 96.768 226.800 C 101.390 226.526,101.787 225.600,97.282 225.600 C 93.260 225.600,93.132 225.458,93.283 221.139 L 93.400 217.800 97.168 217.600 C 102.884 217.297,102.633 216.400,96.833 216.400 L 92.400 216.400 92.400 226.200 M107.200 226.200 C 107.200 233.916,107.309 236.030,107.700 235.900 C 108.081 235.773,108.200 233.471,108.200 226.200 C 108.200 218.929,108.081 216.627,107.700 216.500 C 107.309 216.370,107.200 218.484,107.200 226.200 M113.298 216.900 C 113.394 217.192,114.446 217.483,115.831 217.600 L 118.200 217.800 118.308 226.900 C 118.372 232.389,118.568 236.000,118.800 236.000 C 119.032 236.000,119.228 232.389,119.292 226.900 L 119.400 217.800 121.900 217.681 C 123.764 217.592,124.400 217.414,124.400 216.981 C 124.400 216.501,123.425 216.400,118.767 216.400 C 114.439 216.400,113.171 216.516,113.298 216.900 M145.200 224.106 C 145.200 233.750,146.040 235.751,150.200 236.010 C 156.468 236.401,157.716 234.142,157.511 222.785 C 157.338 213.239,156.498 214.210,156.331 224.149 C 156.210 231.339,156.135 232.031,155.357 233.072 C 153.324 235.791,149.216 235.673,147.313 232.841 C 146.443 231.545,146.400 231.129,146.400 223.941 C 146.400 217.505,146.312 216.400,145.800 216.400 C 145.287 216.400,145.200 217.523,145.200 224.106 M162.800 226.173 C 162.800 234.641,162.883 236.000,163.400 236.000 C 163.916 236.000,164.000 234.724,164.000 226.920 C 164.000 221.186,164.140 217.980,164.380 218.220 C 164.770 218.610,172.204 233.459,172.845 235.127 C 173.118 235.838,173.455 236.024,174.300 235.927 L 175.400 235.800 175.400 226.233 C 175.400 218.936,175.281 216.627,174.900 216.500 C 174.510 216.370,174.400 218.284,174.400 225.200 C 174.400 231.476,174.271 234.024,173.960 233.920 C 173.717 233.839,171.602 229.909,169.260 225.187 C 165.375 217.356,164.903 216.589,163.900 216.473 L 162.800 216.347 162.800 226.173 M181.600 226.200 C 181.600 234.644,181.683 236.000,182.200 236.000 C 182.717 236.000,182.800 234.644,182.800 226.200 C 182.800 217.756,182.717 216.400,182.200 216.400 C 181.683 216.400,181.600 217.756,181.600 226.200 M212.800 226.159 C 212.800 234.539,212.887 236.000,213.386 236.000 C 213.858 236.000,213.995 235.160,214.086 231.700 L 214.200 227.400 215.763 227.495 C 217.806 227.620,218.304 228.123,220.626 232.407 C 221.697 234.383,222.804 236.000,223.087 236.000 C 223.837 236.000,223.725 235.454,222.536 233.314 C 221.951 232.261,221.276 231.041,221.036 230.601 C 220.796 230.162,220.195 229.293,219.700 228.671 C 218.666 227.370,218.562 226.800,219.359 226.800 C 220.255 226.800,222.337 224.140,222.620 222.635 C 223.332 218.837,221.045 216.670,216.100 216.459 L 212.800 216.318 212.800 226.159 M245.348 216.990 C 244.709 218.657,245.401 231.802,246.200 233.158 C 248.561 237.167,254.883 237.184,256.899 233.186 C 257.857 231.288,257.967 216.400,257.023 216.400 C 256.543 216.400,256.425 217.784,256.323 224.635 L 256.200 232.871 255.098 233.818 C 252.749 235.837,248.902 235.327,247.420 232.800 C 246.688 231.549,246.586 230.599,246.469 223.900 C 246.349 217.066,246.043 215.179,245.348 216.990 M263.200 226.194 C 263.200 233.914,263.309 236.031,263.700 235.901 C 264.036 235.790,264.265 234.437,264.400 231.768 L 264.600 227.800 267.669 227.600 C 271.439 227.354,272.539 226.530,273.216 223.446 C 274.230 218.821,272.250 216.675,266.771 216.460 L 263.200 216.320 263.200 226.194 M136.676 218.213 C 140.644 220.813,140.098 232.460,135.911 234.522 C 131.342 236.772,128.181 232.935,128.464 225.482 C 128.727 218.550,132.327 215.363,136.676 218.213 M236.982 218.151 C 239.672 219.914,240.516 228.525,238.378 232.400 C 235.875 236.937,230.440 235.666,229.020 230.211 C 226.764 221.551,231.416 214.504,236.982 218.151 M219.975 218.577 C 223.303 221.589,220.798 226.398,215.900 226.399 L 214.000 226.400 214.000 221.953 L 214.000 217.507 216.577 217.671 C 218.351 217.784,219.411 218.067,219.975 218.577 M270.387 218.193 C 274.609 220.377,272.332 226.442,267.181 226.733 L 264.400 226.890 264.400 222.245 L 264.400 217.600 266.820 217.600 C 268.176 217.600,269.744 217.861,270.387 218.193 " stroke="none" fill="#080808" fill-rule="evenodd"></path><path id="path2" d="M166.183 178.600 C 166.183 187.620,166.235 191.367,166.299 186.927 C 166.364 182.487,166.364 175.107,166.300 170.527 C 166.235 165.947,166.183 169.580,166.183 178.600 M246.959 168.400 C 246.959 171.590,247.021 172.895,247.097 171.300 C 247.173 169.705,247.173 167.095,247.097 165.500 C 247.021 163.905,246.959 165.210,246.959 168.400 M274.399 168.481 C 274.289 171.716,274.340 174.222,274.512 174.050 C 274.683 173.877,274.773 171.231,274.710 168.168 L 274.597 162.600 274.399 168.481 M181.376 185.600 C 181.376 191.870,181.432 194.435,181.499 191.300 C 181.567 188.165,181.567 183.035,181.499 179.900 C 181.432 176.765,181.376 179.330,181.376 185.600 M190.889 190.876 C 190.840 200.048,190.935 207.636,191.100 207.739 C 191.373 207.908,191.367 195.511,191.087 180.200 C 191.027 176.900,190.938 181.704,190.889 190.876 M100.267 196.267 C 99.898 196.636,99.929 207.509,100.300 207.739 C 100.465 207.842,100.546 205.339,100.480 202.179 L 100.359 196.432 103.880 196.298 L 107.400 196.165 103.967 196.082 C 102.078 196.037,100.413 196.120,100.267 196.267 M161.907 196.290 C 162.626 196.379,163.706 196.377,164.307 196.286 C 164.908 196.195,164.320 196.122,163.000 196.124 C 161.680 196.126,161.188 196.201,161.907 196.290 M166.100 208.294 C 167.145 208.376,168.855 208.376,169.900 208.294 C 170.945 208.212,170.090 208.144,168.000 208.144 C 165.910 208.144,165.055 208.212,166.100 208.294 M133.300 215.876 C 133.685 215.976,134.315 215.976,134.700 215.876 C 135.085 215.775,134.770 215.693,134.000 215.693 C 133.230 215.693,132.915 215.775,133.300 215.876 M202.500 215.876 C 202.885 215.976,203.515 215.976,203.900 215.876 C 204.285 215.775,203.970 215.693,203.200 215.693 C 202.430 215.693,202.115 215.775,202.500 215.876 M108.200 226.200 C 108.200 231.768,108.335 236.240,108.500 236.138 C 108.665 236.036,108.800 231.564,108.800 226.200 C 108.800 220.836,108.665 216.364,108.500 216.262 C 108.335 216.160,108.200 220.632,108.200 226.200 M157.599 223.519 L 157.798 231.000 157.909 223.830 C 157.969 219.886,157.880 216.519,157.710 216.349 C 157.539 216.178,157.490 219.405,157.599 223.519 M162.573 226.200 C 162.573 231.700,162.630 234.005,162.699 231.323 C 162.768 228.641,162.768 224.141,162.699 221.323 C 162.630 218.505,162.574 220.700,162.573 226.200 M175.769 224.800 C 175.769 229.310,175.827 231.155,175.898 228.900 C 175.970 226.645,175.970 222.955,175.898 220.700 C 175.827 218.445,175.769 220.290,175.769 224.800 M119.599 227.081 C 119.490 232.185,119.539 236.223,119.708 236.053 C 119.877 235.883,119.967 231.707,119.907 226.772 L 119.799 217.800 119.599 227.081 M264.548 222.000 C 264.548 224.310,264.614 225.255,264.695 224.100 C 264.776 222.945,264.776 221.055,264.695 219.900 C 264.614 218.745,264.548 219.690,264.548 222.000 M164.000 227.200 C 164.000 232.113,164.083 236.050,164.185 235.948 C 164.458 235.676,164.501 218.768,164.230 218.497 C 164.104 218.370,164.000 222.287,164.000 227.200 M273.701 221.800 C 273.705 222.680,273.787 222.993,273.883 222.495 C 273.979 221.998,273.975 221.278,273.875 220.895 C 273.775 220.513,273.696 220.920,273.701 221.800 M138.924 226.200 C 138.926 227.520,139.001 228.012,139.090 227.293 C 139.179 226.574,139.177 225.494,139.086 224.893 C 138.995 224.292,138.922 224.880,138.924 226.200 M100.432 225.900 C 100.402 226.755,100.242 226.800,97.224 226.800 C 95.477 226.800,93.963 226.935,93.860 227.100 C 93.758 227.265,95.198 227.341,97.061 227.270 C 100.467 227.139,101.183 226.791,100.669 225.513 C 100.556 225.231,100.449 225.405,100.432 225.900 M206.144 230.000 C 206.144 232.090,206.212 232.945,206.294 231.900 C 206.376 230.855,206.376 229.145,206.294 228.100 C 206.212 227.055,206.144 227.910,206.144 230.000 M207.734 230.000 C 207.734 231.650,207.805 232.325,207.891 231.500 C 207.978 230.675,207.978 229.325,207.891 228.500 C 207.805 227.675,207.734 228.350,207.734 230.000 M214.252 227.916 C 214.144 228.090,214.673 228.161,215.428 228.073 C 216.183 227.985,216.800 227.842,216.800 227.756 C 216.800 227.455,214.445 227.603,214.252 227.916 M264.602 228.500 C 264.287 229.411,264.194 236.330,264.500 236.140 C 264.665 236.037,264.800 234.263,264.800 232.198 L 264.800 228.444 266.700 228.294 L 268.600 228.144 266.687 228.072 C 265.461 228.026,264.713 228.179,264.602 228.500 M93.720 230.800 C 93.720 232.010,93.795 232.505,93.887 231.900 C 93.978 231.295,93.978 230.305,93.887 229.700 C 93.795 229.095,93.720 229.590,93.720 230.800 M133.100 234.682 C 133.595 234.778,134.405 234.778,134.900 234.682 C 135.395 234.587,134.990 234.509,134.000 234.509 C 133.010 234.509,132.605 234.587,133.100 234.682 M150.700 234.682 C 151.195 234.778,152.005 234.778,152.500 234.682 C 152.995 234.587,152.590 234.509,151.600 234.509 C 150.610 234.509,150.205 234.587,150.700 234.682 " stroke="none" fill="#9f9f9f" fill-rule="evenodd"></path><path id="path3" d="M70.978 162.913 C 70.867 163.203,70.826 165.861,70.888 168.820 L 71.000 174.200 73.491 174.319 L 75.982 174.438 76.104 181.719 L 76.226 189.000 76.213 181.600 L 76.200 174.200 73.700 174.081 L 71.200 173.962 71.200 168.381 L 71.200 162.800 81.000 162.800 L 90.800 162.800 90.800 176.191 L 90.800 189.582 83.500 189.705 L 76.200 189.829 83.600 189.814 L 91.000 189.800 91.000 176.200 L 91.000 162.600 81.090 162.493 C 73.183 162.408,71.139 162.492,70.978 162.913 M101.777 162.915 C 101.666 163.205,101.631 165.773,101.701 168.621 L 101.826 173.800 101.913 168.300 L 102.000 162.800 112.796 162.800 L 123.592 162.800 123.702 180.400 L 123.813 198.000 123.806 180.300 L 123.800 162.600 112.890 162.494 C 104.151 162.408,101.940 162.492,101.777 162.915 M132.667 162.667 C 132.170 163.163,132.364 173.404,132.880 173.920 C 133.144 174.184,134.222 174.400,135.276 174.400 L 137.191 174.400 137.300 190.900 L 137.409 207.400 137.505 190.720 L 137.600 174.040 135.300 173.920 L 133.000 173.800 132.889 168.307 L 132.778 162.814 142.689 162.700 L 152.600 162.585 142.767 162.493 C 137.358 162.442,132.813 162.520,132.667 162.667 M186.000 162.698 L 205.600 162.808 205.600 185.221 L 205.600 207.635 198.419 207.517 C 194.470 207.453,191.378 207.539,191.549 207.710 C 191.720 207.880,194.996 207.970,198.830 207.910 L 205.800 207.800 205.800 185.200 L 205.800 162.600 186.100 162.594 L 166.400 162.589 186.000 162.698 M225.900 162.700 L 236.000 162.814 236.000 176.207 L 236.000 189.600 228.809 189.600 L 221.617 189.600 221.509 181.900 L 221.400 174.200 218.738 174.000 C 217.273 173.890,216.159 173.935,216.261 174.100 C 216.363 174.265,217.513 174.400,218.815 174.400 L 221.183 174.400 221.291 182.100 L 221.400 189.800 228.800 189.800 L 236.200 189.800 236.305 176.100 L 236.411 162.400 226.105 162.493 L 215.800 162.586 225.900 162.700 M251.800 162.685 C 263.918 162.966,274.401 162.973,274.400 162.700 C 274.400 162.535,268.235 162.439,260.700 162.486 C 253.165 162.534,249.160 162.623,251.800 162.685 M271.400 174.000 L 268.600 174.259 271.276 174.329 C 272.748 174.368,274.064 174.220,274.200 174.000 C 274.336 173.780,274.392 173.632,274.324 173.671 C 274.256 173.709,272.940 173.858,271.400 174.000 M105.693 174.292 L 109.186 174.430 109.304 184.415 L 109.421 194.400 109.411 184.300 L 109.400 174.200 105.800 174.178 L 102.200 174.155 105.693 174.292 M183.717 174.297 C 185.211 174.374,187.551 174.374,188.917 174.296 C 190.282 174.218,189.060 174.155,186.200 174.155 C 183.340 174.156,182.222 174.220,183.717 174.297 M250.786 174.291 C 253.143 174.379,254.703 174.615,254.917 174.916 C 255.162 175.261,255.214 175.227,255.098 174.800 C 254.968 174.320,254.141 174.195,250.968 174.175 L 247.000 174.150 250.786 174.291 M267.244 176.444 C 266.998 177.151,266.866 177.800,266.952 177.885 C 267.038 177.971,267.309 177.462,267.556 176.756 C 267.802 176.049,267.934 175.400,267.848 175.315 C 267.762 175.229,267.491 175.738,267.244 176.444 M252.865 179.017 C 252.195 180.488,252.323 180.802,253.047 179.465 C 253.386 178.840,253.588 178.254,253.496 178.163 C 253.405 178.071,253.121 178.456,252.865 179.017 M250.893 186.400 C 250.893 187.170,250.975 187.485,251.076 187.100 C 251.176 186.715,251.176 186.085,251.076 185.700 C 250.975 185.315,250.893 185.630,250.893 186.400 M250.493 190.000 C 250.493 190.770,250.575 191.085,250.676 190.700 C 250.776 190.315,250.776 189.685,250.676 189.300 C 250.575 188.915,250.493 189.230,250.493 190.000 M250.901 194.200 C 250.905 195.080,250.987 195.393,251.083 194.895 C 251.179 194.398,251.175 193.678,251.075 193.295 C 250.975 192.913,250.896 193.320,250.901 194.200 M101.900 196.693 C 102.835 196.777,104.365 196.777,105.300 196.693 C 106.235 196.609,105.470 196.540,103.600 196.540 C 101.730 196.540,100.965 196.609,101.900 196.693 M180.893 199.200 C 180.893 199.970,180.975 200.285,181.076 199.900 C 181.176 199.515,181.176 198.885,181.076 198.500 C 180.975 198.115,180.893 198.430,180.893 199.200 M121.225 203.966 C 120.768 204.607,119.460 205.597,118.319 206.166 C 117.177 206.735,116.487 207.200,116.786 207.200 C 117.759 207.200,120.726 205.227,121.601 203.998 C 122.070 203.339,122.364 202.800,122.254 202.800 C 122.144 202.800,121.681 203.325,121.225 203.966 M267.293 204.800 C 267.293 205.570,267.375 205.885,267.476 205.500 C 267.576 205.115,267.576 204.485,267.476 204.100 C 267.375 203.715,267.293 204.030,267.293 204.800 M252.412 206.892 C 252.394 207.911,253.478 208.040,260.967 207.914 C 266.058 207.828,267.760 207.674,267.837 207.290 C 267.894 207.010,267.849 206.965,267.737 207.190 C 267.339 207.992,253.309 207.719,252.832 206.900 C 252.448 206.241,252.424 206.241,252.412 206.892 M100.750 207.711 C 100.922 207.882,103.748 207.972,107.031 207.910 L 113.000 207.797 106.719 207.599 C 103.264 207.489,100.578 207.540,100.750 207.711 M144.800 207.600 L 137.400 207.827 144.676 207.914 C 149.191 207.967,152.047 207.848,152.200 207.600 C 152.336 207.380,152.392 207.239,152.324 207.286 C 152.256 207.334,148.870 207.475,144.800 207.600 M163.700 207.876 C 164.085 207.976,164.715 207.976,165.100 207.876 C 165.485 207.775,165.170 207.693,164.400 207.693 C 163.630 207.693,163.315 207.775,163.700 207.876 M170.705 207.883 C 171.202 207.979,171.922 207.975,172.305 207.875 C 172.687 207.775,172.280 207.696,171.400 207.701 C 170.520 207.705,170.207 207.787,170.705 207.883 M76.552 216.581 C 76.103 217.752,76.858 218.000,80.866 218.000 C 84.334 218.000,84.853 218.085,84.647 218.621 C 84.511 218.977,84.578 219.137,84.805 218.997 C 86.321 218.060,85.068 217.600,81.000 217.600 C 77.465 217.600,76.800 217.501,76.800 216.977 C 76.800 216.440,77.485 216.371,81.763 216.477 C 84.492 216.545,86.642 216.465,86.539 216.300 C 86.159 215.688,76.793 215.952,76.552 216.581 M92.180 216.508 C 92.073 216.787,92.037 221.332,92.100 226.608 L 92.215 236.200 92.308 226.314 L 92.400 216.427 96.700 216.298 L 101.000 216.170 96.687 216.085 C 93.507 216.022,92.324 216.133,92.180 216.508 M106.980 216.508 C 106.873 216.787,106.837 221.332,106.900 226.608 L 107.015 236.200 107.108 226.257 C 107.189 217.459,107.271 216.342,107.821 216.553 C 108.177 216.689,108.337 216.622,108.197 216.395 C 107.856 215.843,107.212 215.902,106.980 216.508 M116.100 216.297 C 117.585 216.374,120.015 216.374,121.500 216.297 C 122.985 216.220,121.770 216.157,118.800 216.157 C 115.830 216.157,114.615 216.220,116.100 216.297 M156.178 216.514 C 156.069 216.797,156.034 220.172,156.100 224.014 L 156.220 231.000 156.310 223.657 C 156.389 217.208,156.476 216.343,157.021 216.553 C 157.377 216.689,157.537 216.622,157.397 216.395 C 157.054 215.841,156.412 215.903,156.178 216.514 M163.600 216.293 C 164.150 216.394,164.870 216.684,165.200 216.938 C 165.722 217.340,165.729 217.309,165.251 216.700 C 164.948 216.314,164.230 216.024,163.651 216.054 L 162.600 216.109 163.600 216.293 M182.100 216.252 C 182.923 216.495,183.204 235.733,182.390 236.137 C 182.165 236.249,182.210 236.293,182.490 236.237 C 183.486 236.035,183.201 216.232,182.200 216.128 C 181.578 216.064,181.556 216.092,182.100 216.252 M212.580 216.508 C 212.035 217.929,212.609 236.190,213.200 236.233 C 213.545 236.258,213.588 236.206,213.300 236.109 C 212.918 235.981,212.800 233.635,212.800 226.190 L 212.800 216.438 215.300 216.296 L 217.800 216.154 215.287 216.077 C 213.566 216.024,212.714 216.160,212.580 216.508 M245.416 216.374 C 245.262 216.623,245.404 216.696,245.770 216.556 C 246.301 216.352,246.397 217.242,246.505 223.361 L 246.629 230.401 246.614 223.333 C 246.601 216.608,246.311 214.926,245.416 216.374 M256.891 216.251 C 257.506 216.433,257.596 217.241,257.705 223.628 L 257.828 230.801 257.814 223.505 C 257.801 216.510,257.767 216.207,257.000 216.128 C 256.395 216.066,256.368 216.096,256.891 216.251 M262.980 216.508 C 262.873 216.787,262.837 221.332,262.900 226.608 L 263.015 236.200 263.108 226.318 L 263.200 216.437 265.900 216.297 L 268.600 216.157 265.887 216.078 C 264.004 216.024,263.115 216.155,262.980 216.508 M101.092 216.905 C 100.884 217.446,100.146 217.591,97.118 217.685 L 93.400 217.800 93.375 221.301 L 93.350 224.802 93.491 221.401 L 93.631 218.000 97.116 217.994 C 100.710 217.988,101.826 217.677,101.522 216.766 C 101.394 216.383,101.278 216.421,101.092 216.905 M129.846 217.235 C 128.844 218.024,127.579 219.979,127.618 220.680 C 127.627 220.856,127.996 220.317,128.436 219.483 C 128.876 218.649,129.813 217.614,130.518 217.185 C 131.223 216.755,131.599 216.402,131.354 216.401 C 131.109 216.401,130.430 216.776,129.846 217.235 M198.276 217.700 C 197.554 218.415,197.421 218.619,197.981 218.154 C 198.542 217.688,199.360 217.108,199.800 216.866 C 200.240 216.623,200.372 216.419,200.094 216.412 C 199.816 216.405,198.998 216.985,198.276 217.700 M270.392 216.846 C 270.937 217.064,271.666 217.458,272.011 217.721 C 272.357 217.984,272.215 217.795,271.697 217.300 C 271.179 216.805,270.450 216.411,270.078 216.425 C 269.627 216.442,269.732 216.583,270.392 216.846 M144.964 223.400 C 144.963 227.140,145.023 228.724,145.097 226.920 C 145.171 225.115,145.172 222.055,145.098 220.120 C 145.025 218.184,144.964 219.660,144.964 223.400 M146.567 224.200 C 146.567 228.380,146.626 230.036,146.698 227.879 C 146.771 225.723,146.770 222.303,146.698 220.279 C 146.625 218.256,146.566 220.020,146.567 224.200 M174.092 225.124 C 174.020 231.806,173.892 233.586,173.500 233.365 C 173.103 233.141,173.102 233.192,173.493 233.615 C 174.356 234.545,174.419 233.892,174.300 225.159 L 174.183 216.600 174.092 225.124 M238.251 217.603 C 238.720 218.151,239.387 219.140,239.735 219.800 C 240.083 220.460,240.375 220.856,240.384 220.680 C 240.416 220.037,239.257 218.177,238.341 217.402 L 237.400 216.606 238.251 217.603 M113.461 217.700 C 113.564 217.865,114.623 218.000,115.816 218.000 L 117.985 218.000 118.092 227.100 C 118.184 234.874,118.287 236.200,118.800 236.200 C 119.313 236.200,119.416 234.877,119.507 227.120 L 119.615 218.039 121.809 217.887 L 124.004 217.734 121.702 217.767 L 119.400 217.800 119.292 226.900 C 119.228 232.389,119.032 236.000,118.800 236.000 C 118.568 236.000,118.372 232.389,118.308 226.900 L 118.200 217.800 115.738 217.600 C 114.384 217.490,113.359 217.535,113.461 217.700 M202.100 217.476 C 202.485 217.576,203.115 217.576,203.500 217.476 C 203.885 217.375,203.570 217.293,202.800 217.293 C 202.030 217.293,201.715 217.375,202.100 217.476 M233.300 217.476 C 233.685 217.576,234.315 217.576,234.700 217.476 C 235.085 217.375,234.770 217.293,234.000 217.293 C 233.230 217.293,232.915 217.375,233.300 217.476 M215.107 217.890 C 215.826 217.979,216.906 217.977,217.507 217.886 C 218.108 217.795,217.520 217.722,216.200 217.724 C 214.880 217.726,214.388 217.801,215.107 217.890 M235.633 217.721 C 235.725 217.788,236.340 218.158,237.000 218.545 L 238.200 219.247 237.256 218.424 C 236.736 217.971,236.121 217.600,235.889 217.600 C 235.657 217.600,235.542 217.654,235.633 217.721 M265.491 217.889 C 266.201 217.977,267.461 217.979,268.291 217.892 C 269.121 217.805,268.540 217.733,267.000 217.731 C 265.460 217.729,264.781 217.800,265.491 217.889 M272.093 222.000 C 272.093 222.770,272.175 223.085,272.276 222.700 C 272.376 222.315,272.376 221.685,272.276 221.300 C 272.175 220.915,272.093 221.230,272.093 222.000 M128.509 224.000 C 128.509 224.990,128.587 225.395,128.682 224.900 C 128.778 224.405,128.778 223.595,128.682 223.100 C 128.587 222.605,128.509 223.010,128.509 224.000 M239.342 226.200 C 239.341 228.180,239.408 229.040,239.492 228.112 C 239.576 227.184,239.577 225.564,239.495 224.512 C 239.412 223.460,239.343 224.220,239.342 226.200 M228.528 226.000 C 228.528 227.430,228.601 228.015,228.689 227.300 C 228.778 226.585,228.778 225.415,228.689 224.700 C 228.601 223.985,228.528 224.570,228.528 226.000 M126.928 226.400 C 126.928 227.830,127.001 228.415,127.089 227.700 C 127.178 226.985,127.178 225.815,127.089 225.100 C 127.001 224.385,126.928 224.970,126.928 226.400 M221.029 225.562 L 219.858 227.000 221.209 225.713 C 221.951 225.005,222.478 224.358,222.379 224.275 C 222.281 224.192,221.673 224.771,221.029 225.562 M270.726 225.288 C 270.135 225.899,269.788 226.400,269.956 226.400 C 270.335 226.400,272.199 224.445,271.968 224.289 C 271.876 224.226,271.316 224.676,270.726 225.288 M219.400 225.227 C 218.740 225.650,218.405 225.997,218.656 225.998 C 218.906 225.999,219.536 225.646,220.056 225.213 C 221.245 224.223,220.959 224.229,219.400 225.227 M95.500 225.493 C 96.435 225.577,97.965 225.577,98.900 225.493 C 99.835 225.409,99.070 225.340,97.200 225.340 C 95.330 225.340,94.565 225.409,95.500 225.493 M214.900 226.287 C 215.505 226.378,216.495 226.378,217.100 226.287 C 217.705 226.195,217.210 226.120,216.000 226.120 C 214.790 226.120,214.295 226.195,214.900 226.287 M264.400 226.497 C 264.400 226.664,265.525 226.779,266.900 226.754 C 269.602 226.703,269.340 226.512,266.300 226.317 C 265.255 226.249,264.400 226.331,264.400 226.497 M93.370 227.333 C 93.258 227.627,93.218 229.382,93.283 231.233 L 93.400 234.600 97.200 234.710 C 100.190 234.797,101.107 234.963,101.500 235.487 C 101.943 236.076,102.000 236.080,102.000 235.519 C 102.000 234.595,101.152 234.400,97.140 234.400 L 93.545 234.400 93.673 230.599 C 93.800 226.804,93.756 226.328,93.370 227.333 M128.509 228.400 C 128.509 229.390,128.587 229.795,128.682 229.300 C 128.778 228.805,128.778 227.995,128.682 227.500 C 128.587 227.005,128.509 227.410,128.509 228.400 M264.661 227.900 C 264.559 228.065,265.403 228.148,266.538 228.084 C 269.947 227.894,270.363 227.712,267.524 227.654 C 266.052 227.625,264.764 227.735,264.661 227.900 M170.800 228.149 C 170.800 228.581,172.389 231.600,172.616 231.600 C 172.726 231.600,172.430 230.835,171.959 229.900 C 171.032 228.061,170.800 227.711,170.800 228.149 M129.216 231.931 C 129.195 232.620,131.380 234.805,132.069 234.784 C 132.361 234.775,132.109 234.501,131.508 234.176 C 130.908 233.850,130.150 233.092,129.824 232.492 C 129.499 231.891,129.225 231.639,129.216 231.931 M245.612 232.694 C 245.605 232.965,246.095 233.694,246.700 234.313 C 247.305 234.932,247.510 235.070,247.155 234.619 C 246.800 234.169,246.310 233.440,246.067 233.000 C 245.823 232.560,245.619 232.422,245.612 232.694 M76.014 233.574 C 75.786 233.999,75.618 234.764,75.641 235.274 C 75.674 236.017,75.740 235.956,75.977 234.965 C 76.139 234.286,76.402 233.521,76.560 233.265 C 76.718 233.009,76.753 232.800,76.638 232.800 C 76.522 232.800,76.242 233.148,76.014 233.574 M236.600 234.027 C 235.940 234.450,235.605 234.797,235.856 234.798 C 236.106 234.799,236.736 234.446,237.256 234.013 C 238.445 233.023,238.159 233.029,236.600 234.027 M248.344 233.976 C 248.864 234.429,249.479 234.800,249.711 234.800 C 250.203 234.800,250.179 234.780,248.600 233.855 L 247.400 233.153 248.344 233.976 M137.694 234.812 C 136.975 235.465,136.537 236.000,136.719 236.000 C 136.901 236.000,137.568 235.460,138.200 234.800 C 139.670 233.265,139.386 233.272,137.694 234.812 M197.399 234.355 C 198.417 235.536,200.100 236.409,201.280 236.368 C 202.262 236.335,202.041 236.211,200.331 235.835 C 199.743 235.706,198.663 235.112,197.931 234.514 C 196.827 233.613,196.736 233.586,197.399 234.355 M229.903 235.100 C 230.421 235.595,231.060 235.995,231.322 235.988 C 231.585 235.981,231.440 235.776,231.000 235.532 C 230.560 235.288,229.921 234.888,229.580 234.644 C 229.240 234.400,229.385 234.605,229.903 235.100 M82.172 234.693 C 86.081 234.806,86.776 234.925,86.950 235.512 C 87.103 236.027,87.133 235.999,87.072 235.400 C 86.996 234.651,86.689 234.599,82.294 234.580 L 77.599 234.560 82.172 234.693 M202.100 235.076 C 202.485 235.176,203.115 235.176,203.500 235.076 C 203.885 234.975,203.570 234.893,202.800 234.893 C 202.030 234.893,201.715 234.975,202.100 235.076 M81.500 236.293 C 82.435 236.377,83.965 236.377,84.900 236.293 C 85.835 236.209,85.070 236.140,83.200 236.140 C 81.330 236.140,80.565 236.209,81.500 236.293 M96.112 236.295 C 97.164 236.377,98.784 236.376,99.712 236.292 C 100.640 236.208,99.780 236.141,97.800 236.142 C 95.820 236.143,95.060 236.212,96.112 236.295 M232.900 236.287 C 233.505 236.378,234.495 236.378,235.100 236.287 C 235.705 236.195,235.210 236.120,234.000 236.120 C 232.790 236.120,232.295 236.195,232.900 236.287 M249.700 236.276 C 250.085 236.376,250.715 236.376,251.100 236.276 C 251.485 236.175,251.170 236.093,250.400 236.093 C 249.630 236.093,249.315 236.175,249.700 236.276 " stroke="none" fill="#747474" fill-rule="evenodd"></path><path id="path4" d="M287.600 198.900 L 287.600 236.200 321.900 236.097 C 340.765 236.040,356.605 235.995,357.100 235.997 L 358.000 236.000 358.000 198.800 L 358.000 161.600 322.800 161.600 L 287.600 161.600 287.600 198.900 M75.676 162.299 C 78.468 162.367,83.148 162.368,86.076 162.299 C 89.004 162.231,86.720 162.175,81.000 162.174 C 75.280 162.174,72.884 162.230,75.676 162.299 M107.100 162.299 C 110.235 162.367,115.365 162.367,118.500 162.299 C 121.635 162.232,119.070 162.176,112.800 162.176 C 106.530 162.176,103.965 162.232,107.100 162.299 M142.300 162.296 L 152.400 162.414 152.400 185.224 L 152.400 208.033 144.819 207.917 C 140.650 207.853,137.378 207.939,137.548 208.109 C 137.719 208.279,141.175 208.369,145.229 208.309 L 152.600 208.200 152.600 185.200 L 152.600 162.200 142.400 162.189 L 132.200 162.179 142.300 162.296 M186.000 162.298 L 206.000 162.407 206.000 185.220 L 206.000 208.033 198.419 207.917 C 194.250 207.853,190.978 207.939,191.148 208.109 C 191.319 208.279,194.775 208.369,198.829 208.309 L 206.200 208.200 206.200 185.200 L 206.200 162.200 186.100 162.194 L 166.000 162.189 186.000 162.298 M220.876 162.299 C 223.668 162.367,228.348 162.368,231.276 162.299 C 234.204 162.231,231.920 162.175,226.200 162.174 C 220.480 162.174,218.084 162.230,220.876 162.299 M247.062 162.300 C 246.960 162.465,253.142 162.600,260.800 162.600 C 268.458 162.600,274.640 162.465,274.538 162.300 C 274.436 162.135,268.254 162.000,260.800 162.000 C 253.346 162.000,247.164 162.135,247.062 162.300 M355.900 162.798 C 356.464 162.800,356.663 234.644,356.100 234.876 C 355.935 234.944,340.725 234.953,322.300 234.895 L 288.800 234.791 288.800 198.825 C 288.800 165.481,288.849 162.849,289.471 162.729 C 289.959 162.635,331.643 162.678,355.900 162.798 M70.548 166.800 C 70.548 169.110,70.614 170.055,70.695 168.900 C 70.776 167.745,70.776 165.855,70.695 164.700 C 70.614 163.545,70.548 164.490,70.548 166.800 M91.380 176.200 C 91.380 183.680,91.434 186.683,91.499 182.874 C 91.565 179.065,91.565 172.945,91.499 169.274 C 91.433 165.603,91.379 168.720,91.380 176.200 M101.283 168.220 C 101.183 174.978,101.070 174.800,105.473 174.800 L 108.786 174.800 108.904 184.300 L 109.021 193.800 109.011 184.200 L 109.000 174.600 105.400 174.400 L 101.800 174.200 101.583 168.400 L 101.366 162.600 101.283 168.220 M124.184 180.200 C 124.184 189.880,124.236 193.783,124.300 188.873 C 124.363 183.963,124.363 176.043,124.300 171.273 C 124.236 166.503,124.184 170.520,124.184 180.200 M247.118 174.473 C 247.493 174.836,254.802 175.077,254.801 174.727 C 254.800 174.576,253.008 174.396,250.818 174.327 C 248.628 174.257,246.963 174.323,247.118 174.473 M326.000 184.600 L 326.000 195.200 336.000 195.200 L 346.000 195.200 346.000 184.600 L 346.000 174.000 336.000 174.000 L 326.000 174.000 326.000 184.600 M72.100 174.687 C 72.705 174.778,73.695 174.778,74.300 174.687 C 74.905 174.595,74.410 174.520,73.200 174.520 C 71.990 174.520,71.495 174.595,72.100 174.687 M75.687 181.820 C 75.579 191.266,74.774 190.421,83.780 190.314 L 91.000 190.227 83.600 190.014 L 76.200 189.800 75.987 182.000 L 75.774 174.200 75.687 181.820 M134.100 174.687 C 134.705 174.778,135.695 174.778,136.300 174.687 C 136.905 174.595,136.410 174.520,135.200 174.520 C 133.990 174.520,133.495 174.595,134.100 174.687 M183.916 174.697 C 185.299 174.775,187.459 174.774,188.716 174.695 C 189.972 174.616,188.840 174.552,186.200 174.553 C 183.560 174.553,182.532 174.618,183.916 174.697 M218.291 174.696 L 220.782 174.838 220.901 182.319 L 221.019 189.800 221.109 182.100 L 221.200 174.400 218.500 174.477 L 215.800 174.554 218.291 174.696 M268.349 175.100 C 267.868 175.714,267.876 175.741,268.415 175.321 C 268.754 175.058,270.194 174.778,271.615 174.698 L 274.200 174.554 271.549 174.477 C 269.438 174.416,268.786 174.543,268.349 175.100 M299.600 184.700 C 299.753 192.597,299.917 194.991,300.300 194.960 C 300.575 194.938,304.850 194.893,309.800 194.860 L 318.800 194.800 318.800 184.600 L 318.800 174.400 309.100 174.400 L 299.400 174.399 299.600 184.700 M265.714 187.400 C 265.717 188.500,265.795 188.903,265.887 188.295 C 265.979 187.686,265.977 186.786,265.882 186.295 C 265.787 185.803,265.711 186.300,265.714 187.400 M225.321 190.298 C 227.477 190.371,230.897 190.370,232.921 190.298 C 234.944 190.225,233.180 190.166,229.000 190.167 C 224.820 190.167,223.164 190.226,225.321 190.298 M266.093 192.800 C 266.093 193.570,266.175 193.885,266.276 193.500 C 266.376 193.115,266.376 192.485,266.276 192.100 C 266.175 191.715,266.093 192.030,266.093 192.800 M266.493 196.000 C 266.493 196.770,266.575 197.085,266.676 196.700 C 266.776 196.315,266.776 195.685,266.676 195.300 C 266.575 194.915,266.493 195.230,266.493 196.000 M160.583 201.800 L 160.600 207.800 161.600 207.866 C 162.461 207.922,162.476 207.904,161.711 207.739 C 160.848 207.553,160.817 207.372,160.693 201.674 L 160.566 195.800 160.583 201.800 M251.693 203.200 C 251.693 203.970,251.775 204.285,251.876 203.900 C 251.976 203.515,251.976 202.885,251.876 202.500 C 251.775 202.115,251.693 202.430,251.693 203.200 M299.200 212.993 L 299.200 223.600 309.207 223.600 L 319.213 223.600 319.107 213.100 L 319.000 202.600 309.100 202.493 L 299.200 202.386 299.200 212.993 M326.267 203.067 C 326.120 203.213,326.000 207.803,326.000 213.267 L 326.000 223.200 336.000 223.200 L 346.000 223.200 346.000 213.000 L 346.000 202.800 336.267 202.800 C 330.913 202.800,326.413 202.920,326.267 203.067 M116.200 207.446 C 114.611 208.005,114.609 208.007,115.988 207.797 C 116.751 207.680,117.552 207.408,117.767 207.193 C 118.231 206.729,118.248 206.726,116.200 207.446 M100.349 208.110 C 100.520 208.281,103.617 208.370,107.230 208.309 L 113.800 208.198 106.919 207.999 C 103.134 207.890,100.178 207.940,100.349 208.110 M252.748 208.109 C 252.919 208.279,256.375 208.369,260.429 208.308 L 267.800 208.198 260.119 207.999 C 255.895 207.890,252.578 207.939,252.748 208.109 M91.774 226.200 C 91.775 231.920,91.831 234.204,91.899 231.276 C 91.968 228.348,91.967 223.668,91.899 220.876 C 91.830 218.084,91.774 220.480,91.774 226.200 M106.574 226.000 C 106.574 231.610,106.630 233.905,106.699 231.100 C 106.768 228.295,106.768 223.705,106.699 220.900 C 106.630 218.095,106.574 220.390,106.574 226.000 M144.578 216.514 C 144.469 216.797,144.430 220.172,144.491 224.014 L 144.602 231.000 144.801 223.500 C 144.996 216.140,144.975 215.478,144.578 216.514 M155.767 223.400 C 155.767 227.580,155.826 229.236,155.898 227.079 C 155.971 224.923,155.970 221.503,155.898 219.479 C 155.825 217.456,155.766 219.220,155.767 223.400 M173.867 216.267 C 173.720 216.413,173.600 220.024,173.600 224.290 C 173.600 229.829,173.474 231.969,173.160 231.775 C 172.910 231.621,172.954 231.914,173.260 232.452 C 173.754 233.319,173.808 233.143,173.896 230.400 C 174.011 226.833,174.214 215.998,174.167 215.999 C 174.148 216.000,174.013 216.120,173.867 216.267 M212.179 216.510 C 212.071 216.791,212.032 220.796,212.092 225.410 L 212.202 233.800 212.401 224.900 C 212.596 216.183,212.577 215.473,212.179 216.510 M244.968 223.800 C 244.968 228.200,245.026 230.055,245.098 227.921 C 245.170 225.788,245.170 222.188,245.099 219.921 C 245.027 217.655,244.968 219.400,244.968 223.800 M246.965 222.800 C 246.965 226.650,247.025 228.225,247.098 226.300 C 247.171 224.375,247.171 221.225,247.098 219.300 C 247.025 217.375,246.965 218.950,246.965 222.800 M262.483 225.876 C 262.437 231.418,262.535 236.037,262.700 236.139 C 262.865 236.241,262.954 233.327,262.897 229.663 C 262.702 217.068,262.566 215.819,262.483 225.876 M128.975 217.700 L 127.800 219.000 129.100 217.825 C 130.312 216.730,130.584 216.400,130.275 216.400 C 130.206 216.400,129.621 216.985,128.975 217.700 M181.373 226.200 C 181.373 231.700,181.430 234.005,181.499 231.323 C 181.568 228.641,181.568 224.141,181.499 221.323 C 181.430 218.505,181.374 220.700,181.373 226.200 M258.165 223.400 C 258.166 227.360,258.226 228.926,258.298 226.880 C 258.371 224.834,258.371 221.594,258.298 219.680 C 258.224 217.766,258.165 219.440,258.165 223.400 M256.160 223.400 C 256.161 226.700,256.222 227.997,256.298 226.282 C 256.373 224.567,256.372 221.867,256.297 220.282 C 256.221 218.697,256.159 220.100,256.160 223.400 M230.770 219.100 L 229.800 220.200 231.000 219.200 C 231.660 218.650,232.275 218.155,232.367 218.100 C 232.458 218.045,232.355 218.000,232.136 218.000 C 231.918 218.000,231.303 218.495,230.770 219.100 M214.178 222.200 L 214.200 225.800 215.903 225.839 L 217.606 225.878 216.018 225.717 L 214.429 225.555 214.292 222.078 L 214.155 218.600 214.178 222.200 M128.893 223.600 C 128.893 224.370,128.975 224.685,129.076 224.300 C 129.176 223.915,129.176 223.285,129.076 222.900 C 128.975 222.515,128.893 222.830,128.893 223.600 M140.928 226.000 C 140.928 227.430,141.001 228.015,141.089 227.300 C 141.178 226.585,141.178 225.415,141.089 224.700 C 141.001 223.985,140.928 224.570,140.928 226.000 M194.934 226.400 C 194.934 228.050,195.005 228.725,195.091 227.900 C 195.178 227.075,195.178 225.725,195.091 224.900 C 195.005 224.075,194.934 224.750,194.934 226.400 M228.928 226.000 C 228.928 227.430,229.001 228.015,229.089 227.300 C 229.178 226.585,229.178 225.415,229.089 224.700 C 229.001 223.985,228.928 224.570,228.928 226.000 M126.528 226.400 C 126.528 227.830,126.601 228.415,126.689 227.700 C 126.778 226.985,126.778 225.815,126.689 225.100 C 126.601 224.385,126.528 224.970,126.528 226.400 M95.712 225.095 C 96.764 225.177,98.384 225.176,99.312 225.092 C 100.240 225.008,99.380 224.941,97.400 224.942 C 95.420 224.943,94.660 225.012,95.712 225.095 M226.909 226.400 C 226.909 227.390,226.987 227.795,227.082 227.300 C 227.178 226.805,227.178 225.995,227.082 225.500 C 226.987 225.005,226.909 225.410,226.909 226.400 M265.700 226.287 C 266.305 226.378,267.295 226.378,267.900 226.287 C 268.505 226.195,268.010 226.120,266.800 226.120 C 265.590 226.120,265.095 226.195,265.700 226.287 M128.909 228.400 C 128.909 229.390,128.987 229.795,129.082 229.300 C 129.178 228.805,129.178 227.995,129.082 227.500 C 128.987 227.005,128.909 227.410,128.909 228.400 M214.148 232.400 C 214.148 234.710,214.214 235.655,214.295 234.500 C 214.376 233.345,214.376 231.455,214.295 230.300 C 214.214 229.145,214.148 230.090,214.148 232.400 M237.894 232.103 L 237.188 233.400 237.994 232.456 C 238.680 231.652,239.046 230.794,238.700 230.803 C 238.645 230.804,238.282 231.389,237.894 232.103 M77.999 234.100 C 78.000 234.265,80.025 234.370,82.500 234.333 C 87.119 234.264,86.578 234.100,81.099 233.908 C 79.394 233.849,77.999 233.935,77.999 234.100 M75.200 234.976 C 75.200 235.513,75.347 236.044,75.528 236.155 C 75.708 236.267,75.777 235.827,75.682 235.179 C 75.472 233.749,75.200 233.635,75.200 234.976 M95.913 234.295 C 97.076 234.376,98.876 234.376,99.913 234.293 C 100.951 234.211,100.000 234.145,97.800 234.146 C 95.600 234.147,94.751 234.214,95.913 234.295 " stroke="none" fill="#ccd3c5" fill-rule="evenodd"></path></g></svg>