<?xml version="1.0" encoding="utf-8"?>
<!-- Generator: Adobe Illustrator 24.0.1, SVG Export Plug-In . SVG Version: 6.00 Build 0)  -->
<svg version="1.1" id="Layer_1" xmlns="http://www.w3.org/2000/svg" xmlns:xlink="http://www.w3.org/1999/xlink" x="0px" y="0px"
	 viewBox="0 0 1245.6 352.8" style="enable-background:new 0 0 1245.6 352.8;" xml:space="preserve">
<style type="text/css">
	.st0{fill:#030303;}
	.st1{fill:#DDDDDD;}
	.st2{fill:#C8D5C4;}
</style>
<g>
	<g>
		<path class="st0" d="M41.7,328.41h40.31v7.03H35l-1.21-7.28l40.2-71.69v-0.49H37.3v-7.03h43.17l1.21,7.28L41.7,327.91V328.41z"/>
		<path class="st0" d="M103.75,335.44v-86.5h39.54v6.91h-32.95v32.33h29.11v6.91h-29.11v33.44h34.6v6.91H103.75z"/>
		<path class="st0" d="M166.45,248.94h6.59v86.5h-6.59V248.94z"/>
		<path class="st0" d="M212.14,255.85h-20.98v-6.91h48.44v6.91h-20.87v79.59h-6.59V255.85z"/>
		<path class="st0" d="M279.68,336.67c-18.01,0-28.89-12.34-28.89-44.05c0-32.08,11.31-44.91,29.77-44.91
			c18.01,0,28.89,12.34,28.89,44.05C309.45,323.84,298.14,336.67,279.68,336.67z M280.23,329.64c13.73,0,22.41-8.76,22.41-37.02
			c0-28.5-8.79-37.88-22.63-37.88c-13.62,0-22.41,8.76-22.41,37.02C257.61,320.26,266.5,329.64,280.23,329.64z"/>
		<path class="st0" d="M376.22,307.18v-58.24h6.59v57.5c0,19.25-9.78,30.23-27.02,30.23c-16.7,0-26.25-10.61-26.25-29.49v-58.24
			h6.59v57.38c0,16.29,8.24,23.32,20.32,23.32C368.42,329.64,376.22,323.6,376.22,307.18z"/>
		<path class="st0" d="M410.59,257.58v77.86h-6.26v-86.5h10.21l28.67,60.34l8.35,17.52h0.88v-77.86h6.15v86.5h-10.1l-28.56-60.09
			l-8.46-17.77H410.59z"/>
		<path class="st0" d="M483.73,248.94h6.59v86.5h-6.59V248.94z"/>
		<path class="st0" d="M594.88,254.5l-4.28,5.92c-3.51-3.58-8.79-5.68-16.59-5.68c-11.53,0-24.82,6.79-24.82,37.14
			c0,27.27,8.79,37.88,24.38,37.88c5.71,0,11.75-1.23,15.27-3.95v-34.18h6.59v37.26c-4.72,4.57-11.97,7.77-23.18,7.77
			c-19.44,0-29.88-14.68-29.88-44.3c0-31.22,14.28-44.67,32.18-44.67C586.64,247.71,592.24,251.78,594.88,254.5z"/>
		<path class="st0" d="M633.31,248.94c15.71,0,25.37,7.03,25.37,24.06c0,13.94-8.35,22.46-17.68,23.44v0.49
			c2.86,1.36,5.71,4.07,9.12,10.61l14.83,27.89h-7.91l-14.28-27.52c-3.3-6.29-7.14-9.38-13.29-9.38h-7.36v36.9h-6.59v-86.5H633.31z
			 M622.11,291.76h10.87c11.09,0,18.89-4.81,18.89-17.89c0-13.2-6.92-18.02-19.66-18.02h-10.1V291.76z"/>
		<path class="st0" d="M705.91,336.67c-18.01,0-28.89-12.34-28.89-44.05c0-32.08,11.31-44.91,29.77-44.91
			c18.01,0,28.89,12.34,28.89,44.05C735.67,323.84,724.36,336.67,705.91,336.67z M706.45,329.64c13.73,0,22.41-8.76,22.41-37.02
			c0-28.5-8.79-37.88-22.63-37.88c-13.62,0-22.41,8.76-22.41,37.02C683.83,320.26,692.73,329.64,706.45,329.64z"/>
		<path class="st0" d="M800.25,307.18v-58.24h6.59v57.5c0,19.25-9.78,30.23-27.02,30.23c-16.7,0-26.25-10.61-26.25-29.49v-58.24
			h6.59v57.38c0,16.29,8.24,23.32,20.32,23.32C792.45,329.64,800.25,323.6,800.25,307.18z"/>
		<path class="st0" d="M873.72,273.5c0,17.52-9.22,26.9-25.59,26.9h-13.18v35.04h-6.59v-86.5h20.98
			C864.6,248.94,873.72,256.59,873.72,273.5z M834.95,255.85v37.63h13.4c13.18,0,18.56-6.54,18.56-19.25
			c0-13.33-6.81-18.39-19.33-18.39H834.95z"/>
	</g>
</g>
<g>
	<g>
		<path class="st1" d="M1230.47,334.66H930.04V16.13h300.43V334.66z M936.72,327.98h287.06V22.81H936.72V327.98z"/>
	</g>
</g>
<rect x="982.47" y="71.24" class="st1" width="82.09" height="87.99"/>
<rect x="1094.61" y="71.24" class="st2" width="82.09" height="87.99"/>
<rect x="982.47" y="192.49" class="st2" width="82.09" height="87.99"/>
<rect x="1094.61" y="192.49" class="st1" width="82.09" height="87.99"/>
<polygon class="st0" points="36.06,136.56 36.06,71.38 15.13,71.38 15.13,21.88 98.83,21.88 98.83,136.56 "/>
<polygon class="st0" points="651.71,136.56 651.71,71.38 630.79,71.38 630.79,21.88 714.48,21.88 714.48,136.56 "/>
<path class="st0" d="M139.07,165.94h28.17c5.33,0,9.66-4.32,9.66-9.66V70.97h-30.98V21.88h92.55v148.88
	c0,24-19.46,43.46-43.46,43.46h-55.93V165.94z"/>
<polygon class="st0" points="296,214.22 296,71.38 276.69,71.38 276.69,21.88 358.77,21.88 358.77,214.22 "/>
<path class="st0" d="M394.99,210.6c0,0,81.68,18.24,85.71-29.51V70.17h43.06v143.86h61.97V21.88H418.33v140.37
	c0,1.81-1.47,3.29-3.29,3.29h-20.05V210.6z"/>
<path class="st0" d="M851.4,71.24h24.44V21.88H761.96v49.36h32.51c-6.85,14.78-16.05,37.5-18.02,56.47
	c-3.22,30.98,8.85,86.31,8.85,86.31h62.77c0,0-11.27-59.35-9.25-89.94C840.26,102.28,846.39,83.38,851.4,71.24z"/>
</svg>
