<?xml version="1.0" encoding="UTF-8" standalone="no"?>
<!DOCTYPE svg PUBLIC "-//W3C//DTD SVG 1.1//EN" "http://www.w3.org/Graphics/SVG/1.1/DTD/svg11.dtd">
<svg xmlns="http://www.w3.org/2000/svg" version="1.1" viewBox="0 0 824 824" width="824.0pt" height="824.0pt" xmlns:xlink="http://www.w3.org/1999/xlink">
<defs>
<path d="M 0.00 0.00 L 824.00 0.00 L 824.00 824.00 L 0.00 824.00 L 0.00 0.00 Z M 592.27 486.73 C 640.73 486.49 689.20 486.69 737.66 486.62 C 737.58 435.23 737.71 383.84 737.60 332.45 C 691.73 332.38 645.87 332.43 600.00 332.42 C 597.42 332.42 594.80 332.30 592.23 332.53 C 591.46 337.25 591.89 342.23 591.82 347.00 C 591.93 361.00 591.51 375.02 592.18 389.00 C 592.23 403.00 592.15 417.00 592.21 431.00 C 592.26 437.67 591.65 444.32 591.80 451.00 C 591.98 462.90 591.42 474.87 592.27 486.73 Z M 146.23 358.69 C 149.72 358.69 153.22 358.67 156.71 358.64 C 156.93 369.33 156.78 380.02 156.79 390.70 C 167.05 390.77 177.31 390.70 187.56 390.75 C 187.51 372.03 187.57 353.30 187.53 334.58 C 173.78 334.66 160.04 334.63 146.29 334.60 C 146.19 342.63 146.28 350.66 146.23 358.69 Z M 209.63 334.63 C 209.64 342.63 209.66 350.63 209.60 358.63 C 214.61 358.73 219.64 358.68 224.65 358.66 C 224.84 370.77 224.66 382.89 224.75 395.00 C 224.74 397.37 224.84 399.87 224.40 402.20 C 223.36 403.44 221.83 404.40 220.18 404.40 C 215.64 404.57 211.09 404.40 206.55 404.46 C 206.54 412.23 206.64 420.00 206.49 427.77 C 208.99 428.24 211.46 428.36 214.00 428.29 C 223.75 428.08 232.58 429.03 242.16 426.36 C 248.12 423.60 252.43 419.10 254.11 412.66 C 254.95 408.18 255.26 403.56 255.20 399.00 C 255.16 382.00 255.20 365.00 255.18 348.00 C 255.16 343.49 255.40 339.04 254.81 334.55 C 239.75 334.72 224.69 334.56 209.63 334.63 Z M 273.25 334.60 C 273.16 342.63 273.22 350.67 273.24 358.70 C 276.42 358.70 279.60 358.68 282.78 358.61 C 282.94 361.08 283.10 363.53 283.10 366.00 C 283.06 383.00 283.09 400.00 283.08 417.00 C 283.00 420.77 282.88 424.52 283.24 428.29 C 293.38 428.24 303.53 428.25 313.67 428.30 C 313.94 397.09 313.78 365.82 313.79 334.60 C 300.28 334.64 286.76 334.64 273.25 334.60 Z M 342.47 403.49 C 338.85 405.03 335.06 404.34 331.14 404.37 C 331.24 411.98 331.02 419.61 331.28 427.21 C 340.71 429.11 350.68 429.25 360.12 427.35 C 366.18 425.33 370.80 420.55 372.37 414.34 C 373.51 409.42 373.34 404.03 373.37 399.00 C 373.39 385.55 373.31 372.11 373.43 358.66 C 380.13 358.67 386.85 358.73 393.55 358.64 C 393.76 381.84 393.53 405.06 393.66 428.26 C 403.87 428.27 414.07 428.25 424.28 428.28 C 424.40 397.06 424.32 365.83 424.32 334.61 C 397.03 334.64 369.75 334.63 342.46 334.61 C 342.49 357.57 342.41 380.53 342.47 403.49 Z M 445.06 334.59 C 445.00 342.62 445.02 350.64 445.02 358.67 C 448.57 358.69 452.13 358.68 455.68 358.66 C 455.88 369.35 455.74 380.05 455.76 390.73 C 466.10 390.74 476.43 390.71 486.77 390.73 C 486.78 372.02 486.82 353.31 486.74 334.59 C 472.85 334.64 458.96 334.65 445.06 334.59 Z M 508.94 334.60 C 508.92 342.62 508.98 350.64 508.92 358.67 C 514.35 358.70 519.78 358.67 525.22 358.67 C 523.53 364.82 519.82 370.06 518.23 376.28 C 514.70 388.87 516.75 400.43 518.47 413.03 C 519.18 418.11 519.76 423.20 520.59 428.27 C 530.96 428.26 541.34 428.25 551.71 428.28 C 550.42 413.07 546.52 397.11 547.31 381.99 C 547.56 374.40 549.68 366.75 552.59 359.77 C 553.34 359.41 554.09 359.06 554.84 358.70 C 558.38 358.68 561.92 358.69 565.46 358.66 C 565.41 350.65 565.45 342.64 565.42 334.64 C 546.60 334.59 527.77 334.66 508.94 334.60 Z M 157.31 448.58 C 163.28 448.60 169.26 448.56 175.23 448.60 C 173.95 451.45 172.42 454.16 170.81 456.82 C 165.75 465.53 160.82 474.31 155.66 482.95 C 155.89 484.15 156.13 485.34 156.38 486.53 C 164.05 486.44 171.73 486.53 179.40 486.48 L 179.43 483.37 C 172.88 483.27 166.33 483.34 159.78 483.31 C 161.58 478.76 164.27 474.88 166.63 470.64 C 170.37 464.03 174.18 457.46 177.99 450.89 C 179.09 449.15 178.75 447.38 178.86 445.41 C 171.78 445.46 164.67 445.26 157.60 445.47 C 157.48 446.51 157.38 447.54 157.31 448.58 Z M 189.52 445.40 C 189.53 459.10 189.55 472.79 189.50 486.48 C 196.21 486.51 202.92 486.49 209.63 486.50 C 209.64 485.45 209.66 484.40 209.67 483.35 C 204.00 483.32 198.33 483.38 192.67 483.33 C 192.64 478.03 192.67 472.73 192.63 467.43 C 197.44 466.90 203.38 468.46 207.80 466.40 C 207.26 465.51 206.73 464.62 206.20 463.73 C 201.68 463.77 197.16 463.79 192.64 463.70 C 192.65 458.66 192.67 453.62 192.64 448.58 C 198.00 448.52 203.36 448.56 208.73 448.55 C 208.74 447.50 208.76 446.45 208.78 445.40 C 202.36 445.37 195.94 445.40 189.52 445.40 Z M 232.69 445.47 L 232.87 448.43 C 236.32 448.63 239.79 448.55 243.24 448.53 C 243.21 461.20 243.23 473.87 243.24 486.54 C 244.30 486.53 245.36 486.52 246.42 486.51 C 246.40 473.86 246.37 461.20 246.43 448.55 C 249.82 448.55 253.21 448.55 256.60 448.55 C 256.61 447.50 256.61 446.45 256.61 445.40 C 248.64 445.41 240.67 445.33 232.69 445.47 Z M 276.00 487.29 C 279.02 486.57 281.84 486.48 284.14 484.16 C 288.96 479.90 289.68 472.99 289.97 466.96 C 290.02 460.92 289.49 453.34 285.40 448.52 C 280.34 442.91 270.07 443.51 265.52 449.48 C 262.94 452.75 262.07 456.98 261.59 461.02 C 261.15 466.83 261.18 473.33 263.33 478.83 C 264.55 482.11 267.30 485.21 270.69 486.28 C 272.46 486.63 274.22 486.99 276.00 487.29 Z M 298.59 445.44 C 298.65 454.63 298.55 463.82 298.62 473.01 C 298.72 477.47 299.72 481.74 303.42 484.60 C 306.03 486.70 308.82 486.66 311.96 487.30 C 315.05 486.57 317.82 486.48 320.30 484.26 C 323.63 481.35 324.61 477.28 324.70 473.01 C 324.81 463.80 324.70 454.59 324.74 445.39 C 323.66 445.39 322.58 445.40 321.50 445.40 C 321.51 454.60 321.54 463.79 321.50 472.99 C 321.38 476.46 320.99 479.87 317.94 482.06 C 315.05 484.33 311.28 483.46 307.87 483.43 C 306.38 482.27 304.48 481.10 303.47 479.48 C 301.99 477.08 301.91 473.76 301.83 471.01 C 301.80 462.46 301.87 453.91 301.80 445.36 C 300.73 445.39 299.66 445.41 298.59 445.44 Z M 335.08 445.40 C 335.10 459.12 335.04 472.84 335.11 486.56 C 336.13 486.54 337.16 486.52 338.18 486.51 C 338.17 473.93 338.11 461.35 338.22 448.77 C 344.54 461.26 350.61 473.88 356.72 486.48 C 358.39 486.50 360.05 486.52 361.71 486.54 C 361.75 472.82 361.73 459.10 361.73 445.38 C 360.72 445.40 359.70 445.42 358.69 445.44 C 358.69 457.98 358.85 470.54 358.60 483.08 C 352.49 470.50 346.34 457.94 340.17 445.38 C 338.47 445.39 336.77 445.40 335.08 445.40 Z M 373.89 445.46 C 373.95 459.13 373.93 472.80 373.91 486.47 C 374.98 486.49 376.05 486.52 377.13 486.55 C 377.12 472.82 377.14 459.09 377.12 445.36 C 376.05 445.39 374.97 445.42 373.89 445.46 Z M 427.77 484.15 C 428.27 477.98 427.90 471.74 428.06 465.54 C 427.01 465.55 425.96 465.56 424.90 465.56 C 424.85 471.11 425.01 476.63 424.78 482.15 C 423.91 482.56 423.04 482.98 422.17 483.39 C 419.41 483.58 416.40 483.90 413.67 483.34 C 410.00 482.15 407.58 479.03 406.59 475.40 C 405.12 469.84 405.07 463.83 406.20 458.20 C 407.18 454.04 409.48 450.01 413.75 448.61 C 418.15 447.91 422.26 447.93 425.97 450.68 C 426.59 449.68 427.21 448.68 427.84 447.69 C 423.93 445.13 420.56 444.33 415.88 444.71 C 411.82 445.59 408.26 447.39 405.90 450.92 C 402.29 456.24 401.72 463.82 402.23 470.04 C 402.86 475.96 404.34 482.18 409.83 485.44 C 415.68 488.36 422.22 487.16 427.77 484.15 Z M 437.82 445.39 C 437.82 459.08 437.82 472.78 437.83 486.48 C 438.87 486.50 439.92 486.53 440.97 486.55 C 441.05 480.57 440.87 474.58 441.15 468.60 C 442.46 468.67 443.76 468.75 445.07 468.82 C 446.09 469.12 447.12 469.40 448.16 469.67 C 452.51 474.45 454.85 481.00 458.15 486.55 C 459.43 486.52 460.71 486.49 461.99 486.47 C 459.43 481.85 456.97 477.19 454.38 472.59 C 453.32 470.68 451.90 469.16 450.20 467.82 C 458.48 467.10 460.74 456.92 457.53 450.52 C 456.17 447.79 453.77 446.92 451.24 445.59 C 446.77 445.38 442.29 445.36 437.82 445.39 Z M 476.69 445.78 C 471.27 447.89 469.12 453.78 468.28 459.09 C 467.53 465.58 467.43 472.96 469.89 479.13 C 471.41 483.05 474.59 486.32 478.95 486.66 C 482.16 486.83 486.47 487.19 489.20 485.22 C 494.54 481.94 496.02 474.81 496.37 469.02 C 496.67 462.93 496.41 455.38 493.01 450.09 C 489.45 444.72 482.45 443.41 476.69 445.78 Z M 518.04 487.30 C 521.18 486.59 523.96 486.62 526.53 484.47 C 530.00 481.58 531.15 477.40 531.24 473.03 C 531.35 463.82 531.20 454.61 531.31 445.40 C 530.19 445.41 529.07 445.41 527.95 445.42 C 527.92 454.62 527.96 463.83 527.94 473.03 C 527.91 476.29 527.49 479.58 524.80 481.76 C 522.13 484.14 518.65 483.74 515.33 483.43 C 510.71 482.46 508.62 478.25 508.44 473.86 C 508.27 464.34 508.42 454.81 508.38 445.29 C 507.33 445.34 506.28 445.42 505.24 445.52 C 505.00 454.34 505.21 463.20 505.15 472.02 C 505.15 476.53 505.85 481.34 509.50 484.42 C 512.08 486.62 514.87 486.62 518.04 487.30 Z M 541.53 445.39 C 541.59 459.08 541.56 472.77 541.55 486.46 C 542.62 486.49 543.69 486.51 544.76 486.53 C 544.77 480.90 544.74 475.28 544.78 469.65 C 548.81 469.45 553.83 470.32 557.58 468.58 C 563.53 465.82 564.57 458.53 563.29 452.77 C 562.16 448.61 558.34 445.65 554.06 445.48 C 549.89 445.28 545.70 445.44 541.53 445.39 Z M 220.31 446.25 C 220.34 459.68 220.31 473.11 220.32 486.54 L 223.46 486.45 C 223.46 472.78 223.45 459.11 223.47 445.44 L 220.37 445.36 L 220.31 446.25 Z" id="p0" />
<path d="M 592.23 332.53 C 594.80 332.30 597.42 332.42 600.00 332.42 C 645.87 332.43 691.73 332.38 737.60 332.45 C 737.71 383.84 737.58 435.23 737.66 486.62 C 689.20 486.69 640.73 486.49 592.27 486.73 C 591.42 474.87 591.98 462.90 591.80 451.00 C 591.65 444.32 592.26 437.67 592.21 431.00 C 592.15 417.00 592.23 403.00 592.18 389.00 C 591.51 375.02 591.93 361.00 591.82 347.00 C 591.89 342.23 591.46 337.25 592.23 332.53 Z M 595.31 335.58 C 595.30 384.83 595.28 434.09 595.32 483.34 C 600.55 483.62 605.77 483.53 611.00 483.51 C 652.06 483.54 693.13 483.48 734.19 483.54 C 734.28 434.23 734.27 384.93 734.19 335.62 C 724.80 335.30 715.39 335.54 706.00 335.47 C 669.11 335.54 632.19 335.32 595.31 335.58 Z" id="p1" />
<path d="M 146.29 334.60 C 160.04 334.63 173.78 334.66 187.53 334.58 C 187.57 353.30 187.51 372.03 187.56 390.75 C 177.31 390.70 167.05 390.77 156.79 390.70 C 156.78 380.02 156.93 369.33 156.71 358.64 C 153.22 358.67 149.72 358.69 146.23 358.69 C 146.28 350.66 146.19 342.63 146.29 334.60 Z" id="p2" />
<path d="M 209.63 334.63 C 224.69 334.56 239.75 334.72 254.81 334.55 C 255.40 339.04 255.16 343.49 255.18 348.00 C 255.20 365.00 255.16 382.00 255.20 399.00 C 255.26 403.56 254.95 408.18 254.11 412.66 C 252.43 419.10 248.12 423.60 242.16 426.36 C 232.58 429.03 223.75 428.08 214.00 428.29 C 211.46 428.36 208.99 428.24 206.49 427.77 C 206.64 420.00 206.54 412.23 206.55 404.46 C 211.09 404.40 215.64 404.57 220.18 404.40 C 221.83 404.40 223.36 403.44 224.40 402.20 C 224.84 399.87 224.74 397.37 224.75 395.00 C 224.66 382.89 224.84 370.77 224.65 358.66 C 219.64 358.68 214.61 358.73 209.60 358.63 C 209.66 350.63 209.64 342.63 209.63 334.63 Z" id="p3" />
<path d="M 273.25 334.60 C 286.76 334.64 300.28 334.64 313.79 334.60 C 313.78 365.82 313.94 397.09 313.67 428.30 C 303.53 428.25 293.38 428.24 283.24 428.29 C 282.88 424.52 283.00 420.77 283.08 417.00 C 283.09 400.00 283.06 383.00 283.10 366.00 C 283.10 363.53 282.94 361.08 282.78 358.61 C 279.60 358.68 276.42 358.70 273.24 358.70 C 273.22 350.67 273.16 342.63 273.25 334.60 Z" id="p4" />
<path d="M 342.46 334.61 C 369.75 334.63 397.03 334.64 424.32 334.61 C 424.32 365.83 424.40 397.06 424.28 428.28 C 414.07 428.25 403.87 428.27 393.66 428.26 C 393.53 405.06 393.76 381.84 393.55 358.64 C 386.85 358.73 380.13 358.67 373.43 358.66 C 373.31 372.11 373.39 385.55 373.37 399.00 C 373.34 404.03 373.51 409.42 372.37 414.34 C 370.80 420.55 366.18 425.33 360.12 427.35 C 350.68 429.25 340.71 429.11 331.28 427.21 C 331.02 419.61 331.24 411.98 331.14 404.37 C 335.06 404.34 338.85 405.03 342.47 403.49 C 342.41 380.53 342.49 357.57 342.46 334.61 Z" id="p5" />
<path d="M 445.06 334.59 C 458.96 334.65 472.85 334.64 486.74 334.59 C 486.82 353.31 486.78 372.02 486.77 390.73 C 476.43 390.71 466.10 390.74 455.76 390.73 C 455.74 380.05 455.88 369.35 455.68 358.66 C 452.13 358.68 448.57 358.69 445.02 358.67 C 445.02 350.64 445.00 342.62 445.06 334.59 Z" id="p6" />
<path d="M 508.94 334.60 C 527.77 334.66 546.60 334.59 565.42 334.64 C 565.45 342.64 565.41 350.65 565.46 358.66 C 561.92 358.69 558.38 358.68 554.84 358.70 C 554.09 359.06 553.34 359.41 552.59 359.77 C 549.68 366.75 547.56 374.40 547.31 381.99 C 546.52 397.11 550.42 413.07 551.71 428.28 C 541.34 428.25 530.96 428.26 520.59 428.27 C 519.76 423.20 519.18 418.11 518.47 413.03 C 516.75 400.43 514.70 388.87 518.23 376.28 C 519.82 370.06 523.53 364.82 525.22 358.67 C 519.78 358.67 514.35 358.70 508.92 358.67 C 508.98 350.64 508.92 342.62 508.94 334.60 Z" id="p7" />
<path d="M 595.31 335.58 C 632.19 335.32 669.11 335.54 706.00 335.47 C 715.39 335.54 724.80 335.30 734.19 335.62 C 734.27 384.93 734.28 434.23 734.19 483.54 C 693.13 483.48 652.06 483.54 611.00 483.51 C 605.77 483.53 600.55 483.62 595.32 483.34 C 595.28 434.09 595.30 384.83 595.31 335.58 Z M 616.46 401.65 C 630.09 401.67 643.72 401.73 657.35 401.61 C 657.21 387.25 657.37 372.89 657.33 358.53 C 643.75 358.59 630.09 358.33 616.54 358.64 C 616.38 372.92 616.58 387.35 616.46 401.65 Z M 671.28 402.26 C 685.11 402.56 698.98 402.42 712.82 402.34 C 713.52 394.14 713.15 386.20 712.87 378.00 C 712.62 371.39 713.44 364.85 712.95 358.24 C 706.52 357.12 700.45 358.54 694.00 358.30 C 686.46 358.38 678.86 358.01 671.34 358.43 C 670.94 362.59 671.24 366.83 671.18 371.00 C 671.25 381.42 671.00 391.85 671.28 402.26 Z M 616.14 460.82 C 619.09 461.08 622.04 461.28 625.00 461.26 C 635.81 461.17 646.62 461.25 657.42 461.23 C 657.61 446.38 657.59 431.49 657.48 416.64 C 645.66 416.57 633.83 416.74 622.00 416.55 C 620.13 416.56 618.25 416.60 616.40 416.94 C 615.85 422.92 616.42 428.99 616.16 435.00 C 615.77 443.56 615.46 452.27 616.14 460.82 Z M 671.46 460.51 C 685.22 460.56 698.99 460.52 712.75 460.54 C 712.94 446.14 712.80 431.73 712.82 417.33 C 699.10 417.43 685.29 417.10 671.59 417.50 C 671.29 431.80 671.42 446.20 671.46 460.51 Z" id="p8" />
<path d="M 616.54 358.64 C 630.09 358.33 643.75 358.59 657.33 358.53 C 657.37 372.89 657.21 387.25 657.35 401.61 C 643.72 401.73 630.09 401.67 616.46 401.65 C 616.58 387.35 616.38 372.92 616.54 358.64 Z" id="p9" />
<path d="M 671.34 358.43 C 678.86 358.01 686.46 358.38 694.00 358.30 C 700.45 358.54 706.52 357.12 712.95 358.24 C 713.44 364.85 712.62 371.39 712.87 378.00 C 713.15 386.20 713.52 394.14 712.82 402.34 C 698.98 402.42 685.11 402.56 671.28 402.26 C 671.00 391.85 671.25 381.42 671.18 371.00 C 671.24 366.83 670.94 362.59 671.34 358.43 Z" id="p10" />
<path d="M 616.40 416.94 C 618.25 416.60 620.13 416.56 622.00 416.55 C 633.83 416.74 645.66 416.57 657.48 416.64 C 657.59 431.49 657.61 446.38 657.42 461.23 C 646.62 461.25 635.81 461.17 625.00 461.26 C 622.04 461.28 619.09 461.08 616.14 460.82 C 615.46 452.27 615.77 443.56 616.16 435.00 C 616.42 428.99 615.85 422.92 616.40 416.94 Z" id="p11" />
<path d="M 671.59 417.50 C 685.29 417.10 699.10 417.43 712.82 417.33 C 712.80 431.73 712.94 446.14 712.75 460.54 C 698.99 460.52 685.22 460.56 671.46 460.51 C 671.42 446.20 671.29 431.80 671.59 417.50 Z" id="p12" />
<path d="M 157.60 445.47 C 164.67 445.26 171.78 445.46 178.86 445.41 C 178.75 447.38 179.09 449.15 177.99 450.89 C 174.18 457.46 170.37 464.03 166.63 470.64 C 164.27 474.88 161.58 478.76 159.78 483.31 C 166.33 483.34 172.88 483.27 179.43 483.37 L 179.40 486.48 C 171.73 486.53 164.05 486.44 156.38 486.53 C 156.13 485.34 155.89 484.15 155.66 482.95 C 160.82 474.31 165.75 465.53 170.81 456.82 C 172.42 454.16 173.95 451.45 175.23 448.60 C 169.26 448.56 163.28 448.60 157.31 448.58 C 157.38 447.54 157.48 446.51 157.60 445.47 Z" id="p13" />
<path d="M 208.78 445.40 C 208.76 446.45 208.74 447.50 208.73 448.55 C 203.36 448.56 198.00 448.52 192.64 448.58 C 192.67 453.62 192.65 458.66 192.64 463.70 C 197.16 463.79 201.68 463.77 206.20 463.73 C 206.73 464.62 207.26 465.51 207.80 466.40 C 203.38 468.46 197.44 466.90 192.63 467.43 C 192.67 472.73 192.64 478.03 192.67 483.33 C 198.33 483.38 204.00 483.32 209.67 483.35 C 209.66 484.40 209.64 485.45 209.63 486.50 C 202.92 486.49 196.21 486.51 189.50 486.48 C 189.55 472.79 189.53 459.10 189.52 445.40 C 195.94 445.40 202.36 445.37 208.78 445.40 Z" id="p14" />
<path d="M 256.61 445.40 C 256.61 446.45 256.61 447.50 256.60 448.55 C 253.21 448.55 249.82 448.55 246.43 448.55 C 246.37 461.20 246.40 473.86 246.42 486.51 C 245.36 486.52 244.30 486.53 243.24 486.54 C 243.23 473.87 243.21 461.20 243.24 448.53 C 239.79 448.55 236.32 448.63 232.87 448.43 L 232.69 445.47 C 240.67 445.33 248.64 445.41 256.61 445.40 Z" id="p15" />
<path d="M 285.40 448.52 C 289.49 453.34 290.02 460.92 289.97 466.96 C 289.68 472.99 288.96 479.90 284.14 484.16 C 281.84 486.48 279.02 486.57 276.00 487.29 C 274.22 486.99 272.46 486.63 270.69 486.28 C 267.30 485.21 264.55 482.11 263.33 478.83 C 261.18 473.33 261.15 466.83 261.59 461.02 C 262.07 456.98 262.94 452.75 265.52 449.48 C 270.07 443.51 280.34 442.91 285.40 448.52 Z M 270.38 449.40 C 266.04 452.21 265.31 457.27 264.79 462.01 C 264.44 467.48 264.66 473.80 267.16 478.80 C 270.18 485.03 281.16 485.61 284.18 479.13 C 287.07 473.56 286.82 466.14 286.27 460.06 C 285.64 455.64 284.14 450.03 279.29 448.60 C 276.57 448.22 272.77 447.82 270.38 449.40 Z" id="p16" />
<path d="M 301.80 445.36 C 301.87 453.91 301.80 462.46 301.83 471.01 C 301.91 473.76 301.99 477.08 303.47 479.48 C 304.48 481.10 306.38 482.27 307.87 483.43 C 311.28 483.46 315.05 484.33 317.94 482.06 C 320.99 479.87 321.38 476.46 321.50 472.99 C 321.54 463.79 321.51 454.60 321.50 445.40 C 322.58 445.40 323.66 445.39 324.74 445.39 C 324.70 454.59 324.81 463.80 324.70 473.01 C 324.61 477.28 323.63 481.35 320.30 484.26 C 317.82 486.48 315.05 486.57 311.96 487.30 C 308.82 486.66 306.03 486.70 303.42 484.60 C 299.72 481.74 298.72 477.47 298.62 473.01 C 298.55 463.82 298.65 454.63 298.59 445.44 C 299.66 445.41 300.73 445.39 301.80 445.36 Z" id="p17" />
<path d="M 335.08 445.40 C 336.77 445.40 338.47 445.39 340.17 445.38 C 346.34 457.94 352.49 470.50 358.60 483.08 C 358.85 470.54 358.69 457.98 358.69 445.44 C 359.70 445.42 360.72 445.40 361.73 445.38 C 361.73 459.10 361.75 472.82 361.71 486.54 C 360.05 486.52 358.39 486.50 356.72 486.48 C 350.61 473.88 344.54 461.26 338.22 448.77 C 338.11 461.35 338.17 473.93 338.18 486.51 C 337.16 486.52 336.13 486.54 335.11 486.56 C 335.04 472.84 335.10 459.12 335.08 445.40 Z" id="p18" />
<path d="M 373.89 445.46 C 374.97 445.42 376.05 445.39 377.12 445.36 C 377.14 459.09 377.12 472.82 377.13 486.55 C 376.05 486.52 374.98 486.49 373.91 486.47 C 373.93 472.80 373.95 459.13 373.89 445.46 Z" id="p19" />
<path d="M 415.88 444.71 C 420.56 444.33 423.93 445.13 427.84 447.69 C 427.21 448.68 426.59 449.68 425.97 450.68 C 422.26 447.93 418.15 447.91 413.75 448.61 C 409.48 450.01 407.18 454.04 406.20 458.20 C 405.07 463.83 405.12 469.84 406.59 475.40 C 407.58 479.03 410.00 482.15 413.67 483.34 C 416.40 483.90 419.41 483.58 422.17 483.39 C 423.04 482.98 423.91 482.56 424.78 482.15 C 425.01 476.63 424.85 471.11 424.90 465.56 C 425.96 465.56 427.01 465.55 428.06 465.54 C 427.90 471.74 428.27 477.98 427.77 484.15 C 422.22 487.16 415.68 488.36 409.83 485.44 C 404.34 482.18 402.86 475.96 402.23 470.04 C 401.72 463.82 402.29 456.24 405.90 450.92 C 408.26 447.39 411.82 445.59 415.88 444.71 Z" id="p20" />
<path d="M 437.82 445.39 C 442.29 445.36 446.77 445.38 451.24 445.59 C 453.77 446.92 456.17 447.79 457.53 450.52 C 460.74 456.92 458.48 467.10 450.20 467.82 C 451.90 469.16 453.32 470.68 454.38 472.59 C 456.97 477.19 459.43 481.85 461.99 486.47 C 460.71 486.49 459.43 486.52 458.15 486.55 C 454.85 481.00 452.51 474.45 448.16 469.67 C 447.12 469.40 446.09 469.12 445.07 468.82 C 443.76 468.75 442.46 468.67 441.15 468.60 C 440.87 474.58 441.05 480.57 440.97 486.55 C 439.92 486.53 438.87 486.50 437.83 486.48 C 437.82 472.78 437.82 459.08 437.82 445.39 Z M 440.98 448.52 C 440.99 454.21 441.01 459.90 440.99 465.59 C 445.18 465.35 450.15 466.59 453.45 463.39 C 456.15 460.64 456.27 454.23 453.82 451.31 C 450.47 447.74 445.37 448.68 440.98 448.52 Z" id="p21" />
<path d="M 476.69 445.78 C 482.45 443.41 489.45 444.72 493.01 450.09 C 496.41 455.38 496.67 462.93 496.37 469.02 C 496.02 474.81 494.54 481.94 489.20 485.22 C 486.47 487.19 482.16 486.83 478.95 486.66 C 474.59 486.32 471.41 483.05 469.89 479.13 C 467.43 472.96 467.53 465.58 468.28 459.09 C 469.12 453.78 471.27 447.89 476.69 445.78 Z M 486.14 483.45 C 488.64 481.67 490.79 479.87 491.71 476.81 C 493.50 471.21 493.37 464.86 492.63 459.08 C 491.97 454.75 490.23 450.77 486.17 448.68 C 482.34 448.13 477.57 447.48 474.91 450.95 C 471.32 454.98 471.09 461.89 471.14 466.99 C 471.28 471.85 471.99 478.47 475.99 481.82 C 479.12 484.36 482.42 483.47 486.14 483.45 Z" id="p22" />
<path d="M 505.24 445.52 C 506.28 445.42 507.33 445.34 508.38 445.29 C 508.42 454.81 508.27 464.34 508.44 473.86 C 508.62 478.25 510.71 482.46 515.33 483.43 C 518.65 483.74 522.13 484.14 524.80 481.76 C 527.49 479.58 527.91 476.29 527.94 473.03 C 527.96 463.83 527.92 454.62 527.95 445.42 C 529.07 445.41 530.19 445.41 531.31 445.40 C 531.20 454.61 531.35 463.82 531.24 473.03 C 531.15 477.40 530.00 481.58 526.53 484.47 C 523.96 486.62 521.18 486.59 518.04 487.30 C 514.87 486.62 512.08 486.62 509.50 484.42 C 505.85 481.34 505.15 476.53 505.15 472.02 C 505.21 463.20 505.00 454.34 505.24 445.52 Z" id="p23" />
<path d="M 554.06 445.48 C 558.34 445.65 562.16 448.61 563.29 452.77 C 564.57 458.53 563.53 465.82 557.58 468.58 C 553.83 470.32 548.81 469.45 544.78 469.65 C 544.74 475.28 544.77 480.90 544.76 486.53 C 543.69 486.51 542.62 486.49 541.55 486.46 C 541.56 472.77 541.59 459.08 541.53 445.39 C 545.70 445.44 549.89 445.28 554.06 445.48 Z M 544.76 448.52 C 544.76 454.52 544.76 460.52 544.75 466.52 C 549.11 466.25 554.96 467.59 558.26 464.17 C 560.83 461.42 561.02 456.55 559.77 453.18 C 558.76 450.58 556.55 449.86 554.29 448.60 C 551.12 448.59 547.94 448.54 544.76 448.52 Z" id="p24" />
<path d="M 220.31 446.25 L 220.37 445.36 L 223.47 445.44 C 223.45 459.11 223.46 472.78 223.46 486.45 L 220.32 486.54 C 220.31 473.11 220.34 459.68 220.31 446.25 Z" id="p25" />
<path d="M 270.38 449.40 C 272.77 447.82 276.57 448.22 279.29 448.60 C 284.14 450.03 285.64 455.64 286.27 460.06 C 286.82 466.14 287.07 473.56 284.18 479.13 C 281.16 485.61 270.18 485.03 267.16 478.80 C 264.66 473.80 264.44 467.48 264.79 462.01 C 265.31 457.27 266.04 452.21 270.38 449.40 Z" id="p26" />
<path d="M 440.98 448.52 C 445.37 448.68 450.47 447.74 453.82 451.31 C 456.27 454.23 456.15 460.64 453.45 463.39 C 450.15 466.59 445.18 465.35 440.99 465.59 C 441.01 459.90 440.99 454.21 440.98 448.52 Z" id="p27" />
<path d="M 486.17 448.68 C 490.23 450.77 491.97 454.75 492.63 459.08 C 493.37 464.86 493.50 471.21 491.71 476.81 C 490.79 479.87 488.64 481.67 486.14 483.45 C 482.42 483.47 479.12 484.36 475.99 481.82 C 471.99 478.47 471.28 471.85 471.14 466.99 C 471.09 461.89 471.32 454.98 474.91 450.95 C 477.57 447.48 482.34 448.13 486.17 448.68 Z" id="p28" />
<path d="M 544.76 448.52 C 547.94 448.54 551.12 448.59 554.29 448.60 C 556.55 449.86 558.76 450.58 559.77 453.18 C 561.02 456.55 560.83 461.42 558.26 464.17 C 554.96 467.59 549.11 466.25 544.75 466.52 C 544.76 460.52 544.76 454.52 544.76 448.52 Z" id="p29" />
</defs>
<g stroke-width="10pt">
<use stroke="#ffffff" xlink:href="#p0" />
<use stroke="#d3d9d0" xlink:href="#p1" />
<use stroke="#000000" xlink:href="#p2" />
<use stroke="#000000" xlink:href="#p3" />
<use stroke="#000000" xlink:href="#p4" />
<use stroke="#000000" xlink:href="#p5" />
<use stroke="#000000" xlink:href="#p6" />
<use stroke="#000000" xlink:href="#p7" />
<use stroke="#ffffff" xlink:href="#p8" />
<use stroke="#d3d9d0" xlink:href="#p9" />
<use stroke="#d3d9d0" xlink:href="#p10" />
<use stroke="#d3d9d0" xlink:href="#p11" />
<use stroke="#d3d9d0" xlink:href="#p12" />
<use stroke="#000000" xlink:href="#p13" />
<use stroke="#000000" xlink:href="#p14" />
<use stroke="#000000" xlink:href="#p15" />
<use stroke="#000000" xlink:href="#p16" />
<use stroke="#000000" xlink:href="#p17" />
<use stroke="#000000" xlink:href="#p18" />
<use stroke="#000000" xlink:href="#p19" />
<use stroke="#000000" xlink:href="#p20" />
<use stroke="#000000" xlink:href="#p21" />
<use stroke="#000000" xlink:href="#p22" />
<use stroke="#000000" xlink:href="#p23" />
<use stroke="#000000" xlink:href="#p24" />
<use stroke="#000000" xlink:href="#p25" />
<use stroke="#ffffff" xlink:href="#p26" />
<use stroke="#ffffff" xlink:href="#p27" />
<use stroke="#ffffff" xlink:href="#p28" />
<use stroke="#ffffff" xlink:href="#p29" />
</g>
<g>
<use fill="#ffffff" xlink:href="#p0" />
<use fill="#d3d9d0" xlink:href="#p1" />
<use fill="#000000" xlink:href="#p2" />
<use fill="#000000" xlink:href="#p3" />
<use fill="#000000" xlink:href="#p4" />
<use fill="#000000" xlink:href="#p5" />
<use fill="#000000" xlink:href="#p6" />
<use fill="#000000" xlink:href="#p7" />
<use fill="#ffffff" xlink:href="#p8" />
<use fill="#d3d9d0" xlink:href="#p9" />
<use fill="#d3d9d0" xlink:href="#p10" />
<use fill="#d3d9d0" xlink:href="#p11" />
<use fill="#d3d9d0" xlink:href="#p12" />
<use fill="#000000" xlink:href="#p13" />
<use fill="#000000" xlink:href="#p14" />
<use fill="#000000" xlink:href="#p15" />
<use fill="#000000" xlink:href="#p16" />
<use fill="#000000" xlink:href="#p17" />
<use fill="#000000" xlink:href="#p18" />
<use fill="#000000" xlink:href="#p19" />
<use fill="#000000" xlink:href="#p20" />
<use fill="#000000" xlink:href="#p21" />
<use fill="#000000" xlink:href="#p22" />
<use fill="#000000" xlink:href="#p23" />
<use fill="#000000" xlink:href="#p24" />
<use fill="#000000" xlink:href="#p25" />
<use fill="#ffffff" xlink:href="#p26" />
<use fill="#ffffff" xlink:href="#p27" />
<use fill="#ffffff" xlink:href="#p28" />
<use fill="#ffffff" xlink:href="#p29" />
</g>
</svg>