<?xml version="1.0" standalone="no"?>
<!DOCTYPE svg PUBLIC "-//W3C//DTD SVG 20010904//EN"
 "http://www.w3.org/TR/2001/REC-SVG-20010904/DTD/svg10.dtd">
<svg version="1.0" xmlns="http://www.w3.org/2000/svg"
 width="824.000000pt" height="824.000000pt" viewBox="0 0 824.000000 824.000000"
 preserveAspectRatio="xMidYMid meet">

<g transform="translate(0.000000,824.000000) scale(0.100000,-0.100000)"
fill="#000000" stroke="none">
<path d="M1460 4770 l0 -120 55 0 55 0 0 -160 0 -161 153 3 152 3 3 278 2 277
-210 0 -210 0 0 -120z"/>
<path d="M2100 4770 l0 -120 75 0 75 0 0 -213 c0 -152 -3 -216 -12 -225 -7 -7
-43 -12 -90 -12 l-78 0 0 -120 0 -120 141 0 c162 0 212 10 263 52 72 59 71 48
74 486 l3 392 -225 0 -226 0 0 -120z"/>
<path d="M2730 4770 l0 -120 50 0 50 0 0 -345 0 -345 155 0 155 0 0 465 0 465
-205 0 -205 0 0 -120z"/>
<path d="M3420 4545 l0 -345 -55 0 -55 0 0 -115 0 -114 38 -8 c55 -12 212 -8
254 6 52 17 88 48 109 95 17 37 19 70 19 314 l0 272 105 0 105 0 0 -345 0
-345 150 0 150 0 0 465 0 465 -410 0 -410 0 0 -345z"/>
<path d="M4450 4770 l0 -120 55 0 55 0 0 -160 0 -160 155 0 155 0 0 280 0 280
-210 0 -210 0 0 -120z"/>
<path d="M5090 4770 l0 -120 80 0 c44 0 80 -2 80 -5 0 -2 -16 -40 -35 -84 -55
-125 -62 -202 -36 -403 11 -91 21 -173 21 -182 0 -14 20 -16 161 -16 l161 0
-6 28 c-13 61 -46 347 -46 393 0 57 25 188 45 237 14 31 16 32 74 32 l61 0 0
120 0 120 -280 0 -280 0 0 -120z"/>
<path d="M1575 3779 c-13 -20 10 -28 93 -31 l82 -3 -95 -165 c-52 -91 -94
-174 -93 -185 3 -17 10 -19 63 -18 33 1 84 2 113 2 39 1 52 5 52 16 0 12 -17
15 -95 15 -52 0 -95 2 -95 4 0 2 43 79 96 171 52 91 94 174 92 183 -3 14 -19
17 -105 20 -67 2 -104 -1 -108 -9z"/>
<path d="M1898 3585 c-2 -130 1 -206 7 -208 12 -4 188 4 194 8 1 2 0 8 -4 14
-3 6 -40 11 -86 11 l-79 0 0 80 0 80 70 0 c56 0 70 3 70 15 0 12 -14 15 -70
15 l-70 0 0 75 0 74 78 3 c60 2 77 6 77 18 0 12 -18 16 -92 18 l-92 3 -3 -206z"/>
<path d="M2204 3777 c-9 -25 1 -397 11 -400 6 -1 11 74 13 206 2 140 -1 207
-8 207 -6 0 -13 -6 -16 -13z"/>
<path d="M2332 3773 c2 -14 15 -19 50 -21 l48 -3 2 -186 c2 -138 6 -187 16
-191 9 -3 12 39 12 187 l0 190 53 3 c38 2 52 7 52 18 0 12 -21 16 -118 18
-109 2 -118 1 -115 -15z"/>
<path d="M2688 3775 c-44 -24 -72 -97 -72 -190 -1 -152 51 -223 157 -212 43 4
56 10 79 37 35 42 52 124 45 212 -10 114 -54 168 -136 168 -25 -1 -58 -7 -73
-15z m120 -31 c41 -29 56 -72 56 -165 -1 -68 -5 -94 -20 -120 -28 -48 -66 -65
-116 -50 -32 10 -43 20 -59 54 -25 57 -26 187 -1 237 28 56 93 77 140 44z"/>
<path d="M2990 3625 c0 -184 7 -213 60 -240 72 -37 164 -3 188 69 16 50 13
327 -4 333 -8 3 -13 -44 -16 -159 -2 -100 -9 -171 -16 -185 -17 -31 -73 -47
-116 -33 -58 19 -61 28 -66 208 -4 120 -8 167 -17 170 -10 3 -13 -34 -13 -163z"/>
<path d="M3352 3583 c2 -152 6 -207 15 -210 10 -4 13 40 15 184 l3 188 88
-180 c48 -98 93 -182 99 -186 6 -4 18 -6 27 -4 14 2 16 26 16 205 0 152 -3
204 -12 207 -10 4 -13 -40 -15 -184 l-3 -188 -92 188 c-84 171 -94 187 -117
187 l-26 0 2 -207z"/>
<path d="M3742 3583 c2 -154 6 -207 16 -211 9 -3 12 43 12 207 0 182 -2 211
-15 211 -13 0 -15 -27 -13 -207z"/>
<path d="M4100 3768 c-55 -38 -75 -89 -75 -193 1 -141 46 -205 145 -205 22 0
56 7 75 14 l35 15 0 90 c0 73 -3 91 -15 91 -11 0 -15 -18 -17 -82 l-3 -83 -37
-9 c-55 -14 -108 9 -132 58 -25 51 -26 177 -1 230 29 61 112 86 163 50 20 -14
23 -14 29 2 17 46 -108 62 -167 22z"/>
<path d="M4380 3580 c0 -180 2 -210 15 -210 12 0 15 17 15 90 0 90 0 90 26 90
43 0 61 -17 105 -100 42 -79 52 -90 64 -70 7 11 -56 133 -80 159 -12 12 -9 19
23 47 34 29 37 36 37 87 0 85 -43 117 -157 117 l-48 0 0 -210z m150 152 c17
-14 23 -29 23 -61 0 -58 -26 -82 -92 -89 l-51 -5 0 87 0 86 49 0 c32 0 56 -6
71 -18z"/>
<path d="M4765 3781 c-53 -22 -84 -93 -85 -196 0 -88 14 -138 50 -178 26 -29
33 -32 89 -32 52 0 64 4 89 28 38 37 52 86 52 188 0 101 -22 159 -69 183 -32
17 -93 20 -126 7z m100 -31 c40 -15 65 -80 65 -170 0 -99 -24 -153 -74 -170
-95 -31 -157 57 -143 206 12 121 64 167 152 134z"/>
<path d="M5050 3635 c0 -207 19 -252 113 -262 58 -7 110 18 131 62 22 46 24
355 2 355 -12 0 -15 -30 -18 -170 -3 -161 -4 -171 -26 -192 -34 -34 -102 -32
-139 5 l-28 27 -3 165 c-3 134 -6 165 -18 165 -11 0 -14 -28 -14 -155z"/>
<path d="M5422 3583 c2 -132 7 -207 13 -206 6 2 11 38 13 82 l3 78 60 6 c48 4
67 11 90 33 61 58 43 176 -31 201 -19 7 -61 12 -93 12 l-57 1 2 -207z m158
147 c43 -43 17 -147 -37 -151 -10 -1 -35 -3 -55 -5 l-38 -3 0 89 0 90 55 0
c42 0 60 -5 75 -20z"/>
</g>
</svg>
